<?xml version="1.0" encoding="utf-8" standalone="no"?>
<!DOCTYPE svg PUBLIC "-//W3C//DTD SVG 1.1//EN"
  "http://www.w3.org/Graphics/SVG/1.1/DTD/svg11.dtd">
<svg xmlns:xlink="http://www.w3.org/1999/xlink" width="394.995pt" height="329.629375pt" viewBox="0 0 394.995 329.629375" xmlns="http://www.w3.org/2000/svg" version="1.1">
 <metadata>
  <rdf:RDF xmlns:dc="http://purl.org/dc/elements/1.1/" xmlns:cc="http://creativecommons.org/ns#" xmlns:rdf="http://www.w3.org/1999/02/22-rdf-syntax-ns#">
   <cc:Work>
    <dc:type rdf:resource="http://purl.org/dc/dcmitype/StillImage"/>
    <dc:date>2026-07-08T07:17:40.766493</dc:date>
    <dc:format>image/svg+xml</dc:format>
    <dc:creator>
     <cc:Agent>
      <dc:title>Matplotlib v3.10.8, https://matplotlib.org/</dc:title>
     </cc:Agent>
    </dc:creator>
   </cc:Work>
  </rdf:RDF>
 </metadata>
 <defs>
  <style type="text/css">*{stroke-linejoin: round; stroke-linecap: butt}</style>
 </defs>
 <g id="figure_1">
  <g id="patch_1">
   <path d="M 0 329.629375 
L 394.995 329.629375 
L 394.995 0 
L 0 0 
z
" style="fill: #ffffff"/>
  </g>
  <g id="axes_1">
   <g id="patch_2">
    <path d="M 26.9125 285.22 
L 378.8875 285.22 
L 378.8875 7.2 
L 26.9125 7.2 
z
" style="fill: #ffffff"/>
   </g>
   <g id="matplotlib.axis_1">
    <g id="xtick_1">
     <g id="line2d_1">
      <defs>
       <path id="m6dee8c131c" d="M 0 0 
L 0 -7 
" style="stroke: #000000"/>
      </defs>
      <g>
       <use xlink:href="#m6dee8c131c" x="26.9125" y="285.22" style="stroke: #000000"/>
      </g>
     </g>
     <g id="line2d_2">
      <defs>
       <path id="m081a76dc79" d="M 0 0 
L 0 7 
" style="stroke: #000000"/>
      </defs>
      <g>
       <use xlink:href="#m081a76dc79" x="26.9125" y="7.2" style="stroke: #000000"/>
      </g>
     </g>
     <g id="text_1">
      <!-- 20 -->
      <g transform="translate(18.005 299.357812) scale(0.14 -0.14)">
       <defs>
        <path id="DejaVuSerif-32" d="M 819 3553 
L 469 3553 
L 469 4384 
Q 803 4563 1142 4656 
Q 1481 4750 1806 4750 
Q 2534 4750 2956 4397 
Q 3378 4044 3378 3438 
Q 3378 2753 2422 1800 
Q 2347 1728 2309 1691 
L 1131 513 
L 3078 513 
L 3078 1088 
L 3444 1088 
L 3444 0 
L 434 0 
L 434 341 
L 1850 1753 
Q 2319 2222 2519 2614 
Q 2719 3006 2719 3438 
Q 2719 3909 2473 4175 
Q 2228 4441 1797 4441 
Q 1350 4441 1106 4219 
Q 863 3997 819 3553 
z
" transform="scale(0.015625)"/>
        <path id="DejaVuSerif-30" d="M 2034 219 
Q 2513 219 2750 744 
Q 2988 1269 2988 2328 
Q 2988 3391 2750 3916 
Q 2513 4441 2034 4441 
Q 1556 4441 1318 3916 
Q 1081 3391 1081 2328 
Q 1081 1269 1318 744 
Q 1556 219 2034 219 
z
M 2034 -91 
Q 1275 -91 848 546 
Q 422 1184 422 2328 
Q 422 3475 848 4112 
Q 1275 4750 2034 4750 
Q 2797 4750 3222 4112 
Q 3647 3475 3647 2328 
Q 3647 1184 3222 546 
Q 2797 -91 2034 -91 
z
" transform="scale(0.015625)"/>
       </defs>
       <use xlink:href="#DejaVuSerif-32"/>
       <use xlink:href="#DejaVuSerif-30" transform="translate(63.623047 0)"/>
      </g>
     </g>
    </g>
    <g id="xtick_2">
     <g id="line2d_3">
      <g>
       <use xlink:href="#m6dee8c131c" x="97.3075" y="285.22" style="stroke: #000000"/>
      </g>
     </g>
     <g id="line2d_4">
      <g>
       <use xlink:href="#m081a76dc79" x="97.3075" y="7.2" style="stroke: #000000"/>
      </g>
     </g>
     <g id="text_2">
      <!-- 30 -->
      <g transform="translate(88.4 299.357812) scale(0.14 -0.14)">
       <defs>
        <path id="DejaVuSerif-33" d="M 622 4469 
Q 988 4606 1323 4678 
Q 1659 4750 1953 4750 
Q 2638 4750 3022 4454 
Q 3406 4159 3406 3634 
Q 3406 3213 3140 2930 
Q 2875 2647 2388 2547 
Q 2963 2466 3280 2130 
Q 3597 1794 3597 1259 
Q 3597 606 3158 257 
Q 2719 -91 1894 -91 
Q 1528 -91 1179 -12 
Q 831 66 488 225 
L 488 1131 
L 838 1131 
Q 869 681 1141 450 
Q 1413 219 1906 219 
Q 2384 219 2661 495 
Q 2938 772 2938 1253 
Q 2938 1803 2653 2086 
Q 2369 2369 1819 2369 
L 1522 2369 
L 1522 2688 
L 1678 2688 
Q 2225 2688 2498 2914 
Q 2772 3141 2772 3597 
Q 2772 4006 2547 4223 
Q 2322 4441 1900 4441 
Q 1478 4441 1245 4241 
Q 1013 4041 972 3647 
L 622 3647 
L 622 4469 
z
" transform="scale(0.015625)"/>
       </defs>
       <use xlink:href="#DejaVuSerif-33"/>
       <use xlink:href="#DejaVuSerif-30" transform="translate(63.623047 0)"/>
      </g>
     </g>
    </g>
    <g id="xtick_3">
     <g id="line2d_5">
      <g>
       <use xlink:href="#m6dee8c131c" x="167.7025" y="285.22" style="stroke: #000000"/>
      </g>
     </g>
     <g id="line2d_6">
      <g>
       <use xlink:href="#m081a76dc79" x="167.7025" y="7.2" style="stroke: #000000"/>
      </g>
     </g>
     <g id="text_3">
      <!-- 40 -->
      <g transform="translate(158.795 299.357812) scale(0.14 -0.14)">
       <defs>
        <path id="DejaVuSerif-34" d="M 2234 1581 
L 2234 4063 
L 641 1581 
L 2234 1581 
z
M 3609 0 
L 1484 0 
L 1484 331 
L 2234 331 
L 2234 1247 
L 197 1247 
L 197 1588 
L 2241 4750 
L 2859 4750 
L 2859 1581 
L 3750 1581 
L 3750 1247 
L 2859 1247 
L 2859 331 
L 3609 331 
L 3609 0 
z
" transform="scale(0.015625)"/>
       </defs>
       <use xlink:href="#DejaVuSerif-34"/>
       <use xlink:href="#DejaVuSerif-30" transform="translate(63.623047 0)"/>
      </g>
     </g>
    </g>
    <g id="xtick_4">
     <g id="line2d_7">
      <g>
       <use xlink:href="#m6dee8c131c" x="238.0975" y="285.22" style="stroke: #000000"/>
      </g>
     </g>
     <g id="line2d_8">
      <g>
       <use xlink:href="#m081a76dc79" x="238.0975" y="7.2" style="stroke: #000000"/>
      </g>
     </g>
     <g id="text_4">
      <!-- 50 -->
      <g transform="translate(229.19 299.357812) scale(0.14 -0.14)">
       <defs>
        <path id="DejaVuSerif-35" d="M 3219 4666 
L 3219 4153 
L 1081 4153 
L 1081 2816 
Q 1244 2928 1461 2984 
Q 1678 3041 1947 3041 
Q 2703 3041 3140 2622 
Q 3578 2203 3578 1478 
Q 3578 738 3136 323 
Q 2694 -91 1894 -91 
Q 1572 -91 1234 -12 
Q 897 66 544 225 
L 544 1131 
L 897 1131 
Q 925 688 1179 453 
Q 1434 219 1894 219 
Q 2388 219 2653 544 
Q 2919 869 2919 1478 
Q 2919 2084 2655 2407 
Q 2391 2731 1894 2731 
Q 1613 2731 1398 2631 
Q 1184 2531 1019 2322 
L 750 2322 
L 750 4666 
L 3219 4666 
z
" transform="scale(0.015625)"/>
       </defs>
       <use xlink:href="#DejaVuSerif-35"/>
       <use xlink:href="#DejaVuSerif-30" transform="translate(63.623047 0)"/>
      </g>
     </g>
    </g>
    <g id="xtick_5">
     <g id="line2d_9">
      <g>
       <use xlink:href="#m6dee8c131c" x="308.4925" y="285.22" style="stroke: #000000"/>
      </g>
     </g>
     <g id="line2d_10">
      <g>
       <use xlink:href="#m081a76dc79" x="308.4925" y="7.2" style="stroke: #000000"/>
      </g>
     </g>
     <g id="text_5">
      <!-- 60 -->
      <g transform="translate(299.585 299.357812) scale(0.14 -0.14)">
       <defs>
        <path id="DejaVuSerif-36" d="M 2094 219 
Q 2534 219 2771 542 
Q 3009 866 3009 1472 
Q 3009 2078 2771 2401 
Q 2534 2725 2094 2725 
Q 1647 2725 1412 2412 
Q 1178 2100 1178 1509 
Q 1178 888 1415 553 
Q 1653 219 2094 219 
z
M 1075 2569 
Q 1288 2803 1556 2918 
Q 1825 3034 2163 3034 
Q 2859 3034 3264 2615 
Q 3669 2197 3669 1472 
Q 3669 763 3233 336 
Q 2797 -91 2069 -91 
Q 1278 -91 853 498 
Q 428 1088 428 2181 
Q 428 3406 931 4078 
Q 1434 4750 2350 4750 
Q 2597 4750 2869 4703 
Q 3141 4656 3425 4563 
L 3425 3794 
L 3072 3794 
Q 3034 4109 2831 4275 
Q 2628 4441 2284 4441 
Q 1678 4441 1381 3981 
Q 1084 3522 1075 2569 
z
" transform="scale(0.015625)"/>
       </defs>
       <use xlink:href="#DejaVuSerif-36"/>
       <use xlink:href="#DejaVuSerif-30" transform="translate(63.623047 0)"/>
      </g>
     </g>
    </g>
    <g id="xtick_6">
     <g id="line2d_11">
      <g>
       <use xlink:href="#m6dee8c131c" x="378.8875" y="285.22" style="stroke: #000000"/>
      </g>
     </g>
     <g id="line2d_12">
      <g>
       <use xlink:href="#m081a76dc79" x="378.8875" y="7.2" style="stroke: #000000"/>
      </g>
     </g>
     <g id="text_6">
      <!-- 70 -->
      <g transform="translate(369.98 299.357812) scale(0.14 -0.14)">
       <defs>
        <path id="DejaVuSerif-37" d="M 3609 4347 
L 1784 0 
L 1319 0 
L 3059 4153 
L 903 4153 
L 903 3578 
L 538 3578 
L 538 4666 
L 3609 4666 
L 3609 4347 
z
" transform="scale(0.015625)"/>
       </defs>
       <use xlink:href="#DejaVuSerif-37"/>
       <use xlink:href="#DejaVuSerif-30" transform="translate(63.623047 0)"/>
      </g>
     </g>
    </g>
    <g id="text_7">
     <!-- $2\theta$(deg.)   Cu-K$\alpha$ -->
     <g transform="translate(136.18 318.749375) scale(0.16 -0.16)">
      <defs>
       <path id="DejaVuSerif-Italic-3b8" d="M 2888 2600 
Q 3059 3603 2947 4113 
Q 2822 4678 2359 4678 
Q 1900 4678 1553 4113 
Q 1244 3603 1025 2600 
L 2888 2600 
z
M 2822 2266 
L 959 2266 
Q 791 1269 903 759 
Q 1031 191 1488 191 
Q 1947 191 2294 759 
Q 2603 1269 2822 2266 
z
M 2409 4931 
Q 3138 4931 3444 4248 
Q 3750 3566 3529 2433 
Q 3309 1300 2734 615 
Q 2159 -69 1434 -69 
Q 713 -69 406 615 
Q 100 1300 320 2433 
Q 541 3566 1112 4248 
Q 1684 4931 2409 4931 
z
" transform="scale(0.015625)"/>
       <path id="DejaVuSerif-28" d="M 2041 -997 
Q 1281 -656 893 83 
Q 506 822 506 1931 
Q 506 3044 893 3783 
Q 1281 4522 2041 4863 
L 2041 4556 
Q 1559 4225 1350 3623 
Q 1141 3022 1141 1931 
Q 1141 844 1350 242 
Q 1559 -359 2041 -691 
L 2041 -997 
z
" transform="scale(0.015625)"/>
       <path id="DejaVuSerif-64" d="M 3359 331 
L 3909 331 
L 3909 0 
L 2784 0 
L 2784 519 
Q 2616 206 2355 57 
Q 2094 -91 1709 -91 
Q 1097 -91 708 395 
Q 319 881 319 1663 
Q 319 2444 706 2928 
Q 1094 3413 1709 3413 
Q 2094 3413 2355 3264 
Q 2616 3116 2784 2803 
L 2784 4531 
L 2241 4531 
L 2241 4863 
L 3359 4863 
L 3359 331 
z
M 2784 1497 
L 2784 1825 
Q 2784 2422 2554 2737 
Q 2325 3053 1888 3053 
Q 1444 3053 1217 2703 
Q 991 2353 991 1663 
Q 991 975 1217 622 
Q 1444 269 1888 269 
Q 2325 269 2554 583 
Q 2784 897 2784 1497 
z
" transform="scale(0.015625)"/>
       <path id="DejaVuSerif-65" d="M 3469 1600 
L 991 1600 
L 991 1575 
Q 991 903 1244 561 
Q 1497 219 1991 219 
Q 2369 219 2611 417 
Q 2853 616 2950 1006 
L 3413 1006 
Q 3275 459 2904 184 
Q 2534 -91 1931 -91 
Q 1203 -91 761 389 
Q 319 869 319 1663 
Q 319 2450 753 2931 
Q 1188 3413 1894 3413 
Q 2647 3413 3050 2948 
Q 3453 2484 3469 1600 
z
M 2791 1931 
Q 2772 2513 2545 2808 
Q 2319 3103 1894 3103 
Q 1497 3103 1269 2806 
Q 1041 2509 991 1931 
L 2791 1931 
z
" transform="scale(0.015625)"/>
       <path id="DejaVuSerif-67" d="M 3359 2988 
L 3359 72 
Q 3359 -644 2965 -1033 
Q 2572 -1422 1844 -1422 
Q 1516 -1422 1216 -1362 
Q 916 -1303 641 -1184 
L 641 -488 
L 941 -488 
Q 997 -813 1206 -963 
Q 1416 -1113 1806 -1113 
Q 2313 -1113 2548 -827 
Q 2784 -541 2784 72 
L 2784 519 
Q 2616 206 2355 57 
Q 2094 -91 1709 -91 
Q 1097 -91 708 395 
Q 319 881 319 1663 
Q 319 2444 706 2928 
Q 1094 3413 1709 3413 
Q 2094 3413 2355 3264 
Q 2616 3116 2784 2803 
L 2784 3322 
L 3909 3322 
L 3909 2988 
L 3359 2988 
z
M 2784 1825 
Q 2784 2422 2554 2737 
Q 2325 3053 1888 3053 
Q 1444 3053 1217 2703 
Q 991 2353 991 1663 
Q 991 975 1217 622 
Q 1444 269 1888 269 
Q 2325 269 2554 583 
Q 2784 897 2784 1497 
L 2784 1825 
z
" transform="scale(0.015625)"/>
       <path id="DejaVuSerif-2e" d="M 603 325 
Q 603 500 722 622 
Q 841 744 1019 744 
Q 1191 744 1312 622 
Q 1434 500 1434 325 
Q 1434 153 1312 31 
Q 1191 -91 1019 -91 
Q 841 -91 722 29 
Q 603 150 603 325 
z
" transform="scale(0.015625)"/>
       <path id="DejaVuSerif-29" d="M 453 -997 
L 453 -691 
Q 934 -359 1145 242 
Q 1356 844 1356 1931 
Q 1356 3022 1145 3623 
Q 934 4225 453 4556 
L 453 4863 
Q 1216 4522 1603 3783 
Q 1991 3044 1991 1931 
Q 1991 822 1603 83 
Q 1216 -656 453 -997 
z
" transform="scale(0.015625)"/>
       <path id="DejaVuSerif-20" transform="scale(0.015625)"/>
       <path id="DejaVuSerif-43" d="M 4513 1234 
Q 4306 581 3820 245 
Q 3334 -91 2591 -91 
Q 2134 -91 1743 65 
Q 1353 222 1050 525 
Q 700 875 529 1320 
Q 359 1766 359 2328 
Q 359 3416 987 4083 
Q 1616 4750 2644 4750 
Q 3025 4750 3456 4650 
Q 3888 4550 4384 4347 
L 4384 3272 
L 4031 3272 
Q 3916 3859 3567 4137 
Q 3219 4416 2591 4416 
Q 1844 4416 1459 3886 
Q 1075 3356 1075 2328 
Q 1075 1303 1459 773 
Q 1844 244 2591 244 
Q 3113 244 3450 492 
Q 3788 741 3938 1234 
L 4513 1234 
z
" transform="scale(0.015625)"/>
       <path id="DejaVuSerif-75" d="M 2266 3322 
L 3341 3322 
L 3341 331 
L 3884 331 
L 3884 0 
L 2766 0 
L 2766 588 
Q 2606 256 2353 82 
Q 2100 -91 1766 -91 
Q 1213 -91 952 223 
Q 691 538 691 1209 
L 691 2988 
L 172 2988 
L 172 3322 
L 1269 3322 
L 1269 1388 
Q 1269 781 1417 556 
Q 1566 331 1947 331 
Q 2347 331 2556 625 
Q 2766 919 2766 1478 
L 2766 2988 
L 2266 2988 
L 2266 3322 
z
" transform="scale(0.015625)"/>
       <path id="DejaVuSerif-2d" d="M 281 1959 
L 1881 1959 
L 1881 1472 
L 281 1472 
L 281 1959 
z
" transform="scale(0.015625)"/>
       <path id="DejaVuSerif-4b" d="M 353 0 
L 353 331 
L 947 331 
L 947 4331 
L 353 4331 
L 353 4666 
L 2175 4666 
L 2175 4331 
L 1581 4331 
L 1581 2566 
L 3591 4331 
L 3084 4331 
L 3084 4666 
L 4634 4666 
L 4634 4331 
L 4109 4331 
L 2106 2572 
L 4347 331 
L 4878 331 
L 4878 0 
L 3794 0 
L 1581 2216 
L 1581 331 
L 2175 331 
L 2175 0 
L 353 0 
z
" transform="scale(0.015625)"/>
       <path id="DejaVuSerif-Italic-3b1" d="M 2597 819 
L 2406 472 
Q 2259 206 1925 31 
Q 1719 -78 1388 -78 
Q 1378 -78 1369 -78 
Q 753 -75 463 406 
Q 269 728 269 1175 
Q 269 1409 322 1675 
Q 472 2441 953 2941 
Q 1406 3409 2172 3409 
Q 2713 3409 2941 3200 
Q 3144 3013 3156 2613 
L 3159 2497 
L 3347 2844 
Q 3525 3172 3878 3334 
L 4194 3334 
L 4156 3150 
Q 3838 3056 3675 2763 
L 3178 1875 
L 3213 919 
Q 3228 428 3338 375 
Q 3375 356 3434 356 
Q 3603 356 3928 531 
L 3856 153 
Q 3509 -25 3244 -25 
Q 2966 -25 2778 169 
Q 2609 344 2603 597 
L 2597 819 
z
M 2581 1431 
L 2566 2350 
Q 2550 3081 2119 3084 
Q 1763 3084 1419 2703 
Q 1131 2388 991 1663 
Q 928 1347 928 1103 
Q 928 813 1016 622 
Q 1175 266 1550 266 
Q 1963 266 2384 1063 
L 2581 1431 
z
" transform="scale(0.015625)"/>
      </defs>
      <use xlink:href="#DejaVuSerif-32" transform="translate(0 0.953125)"/>
      <use xlink:href="#DejaVuSerif-Italic-3b8" transform="translate(63.623047 0.953125)"/>
      <use xlink:href="#DejaVuSerif-28" transform="translate(123.828125 0.953125)"/>
      <use xlink:href="#DejaVuSerif-64" transform="translate(162.841797 0.953125)"/>
      <use xlink:href="#DejaVuSerif-65" transform="translate(226.855469 0.953125)"/>
      <use xlink:href="#DejaVuSerif-67" transform="translate(286.035156 0.953125)"/>
      <use xlink:href="#DejaVuSerif-2e" transform="translate(350.048828 0.953125)"/>
      <use xlink:href="#DejaVuSerif-29" transform="translate(381.835938 0.953125)"/>
      <use xlink:href="#DejaVuSerif-20" transform="translate(420.849609 0.953125)"/>
      <use xlink:href="#DejaVuSerif-20" transform="translate(452.636719 0.953125)"/>
      <use xlink:href="#DejaVuSerif-20" transform="translate(484.423828 0.953125)"/>
      <use xlink:href="#DejaVuSerif-43" transform="translate(516.210938 0.953125)"/>
      <use xlink:href="#DejaVuSerif-75" transform="translate(592.724609 0.953125)"/>
      <use xlink:href="#DejaVuSerif-2d" transform="translate(657.128906 0.953125)"/>
      <use xlink:href="#DejaVuSerif-4b" transform="translate(690.917969 0.953125)"/>
      <use xlink:href="#DejaVuSerif-Italic-3b1" transform="translate(765.625 0.953125)"/>
     </g>
    </g>
   </g>
   <g id="matplotlib.axis_2">
    <g id="text_8">
     <!-- Intensity (arb. units) -->
     <g transform="translate(19.3575 229.7925) rotate(-90) scale(0.16 -0.16)">
      <defs>
       <path id="DejaVuSerif-49" d="M 1581 331 
L 2175 331 
L 2175 0 
L 353 0 
L 353 331 
L 947 331 
L 947 4331 
L 353 4331 
L 353 4666 
L 2175 4666 
L 2175 4331 
L 1581 4331 
L 1581 331 
z
" transform="scale(0.015625)"/>
       <path id="DejaVuSerif-6e" d="M 263 0 
L 263 331 
L 781 331 
L 781 2988 
L 231 2988 
L 231 3322 
L 1356 3322 
L 1356 2731 
Q 1516 3069 1770 3241 
Q 2025 3413 2363 3413 
Q 2913 3413 3172 3097 
Q 3431 2781 3431 2113 
L 3431 331 
L 3944 331 
L 3944 0 
L 2356 0 
L 2356 331 
L 2853 331 
L 2853 1931 
Q 2853 2541 2703 2767 
Q 2553 2994 2175 2994 
Q 1775 2994 1565 2701 
Q 1356 2409 1356 1850 
L 1356 331 
L 1856 331 
L 1856 0 
L 263 0 
z
" transform="scale(0.015625)"/>
       <path id="DejaVuSerif-74" d="M 691 2988 
L 184 2988 
L 184 3322 
L 691 3322 
L 691 4353 
L 1269 4353 
L 1269 3322 
L 2350 3322 
L 2350 2988 
L 1269 2988 
L 1269 878 
Q 1269 456 1350 337 
Q 1431 219 1650 219 
Q 1875 219 1978 351 
Q 2081 484 2088 781 
L 2522 781 
Q 2497 328 2275 118 
Q 2053 -91 1600 -91 
Q 1103 -91 897 129 
Q 691 350 691 878 
L 691 2988 
z
" transform="scale(0.015625)"/>
       <path id="DejaVuSerif-73" d="M 359 184 
L 359 959 
L 691 959 
Q 703 588 923 403 
Q 1144 219 1575 219 
Q 1963 219 2166 364 
Q 2369 509 2369 788 
Q 2369 1006 2220 1140 
Q 2072 1275 1594 1428 
L 1178 1569 
Q 750 1706 558 1912 
Q 366 2119 366 2438 
Q 366 2894 700 3153 
Q 1034 3413 1625 3413 
Q 1888 3413 2178 3344 
Q 2469 3275 2778 3144 
L 2778 2419 
L 2447 2419 
Q 2434 2741 2221 2922 
Q 2009 3103 1644 3103 
Q 1281 3103 1095 2975 
Q 909 2847 909 2591 
Q 909 2381 1050 2254 
Q 1191 2128 1613 1997 
L 2069 1856 
Q 2541 1709 2748 1489 
Q 2956 1269 2956 922 
Q 2956 450 2595 179 
Q 2234 -91 1600 -91 
Q 1278 -91 972 -22 
Q 666 47 359 184 
z
" transform="scale(0.015625)"/>
       <path id="DejaVuSerif-69" d="M 622 4353 
Q 622 4497 726 4603 
Q 831 4709 978 4709 
Q 1122 4709 1226 4603 
Q 1331 4497 1331 4353 
Q 1331 4206 1228 4103 
Q 1125 4000 978 4000 
Q 831 4000 726 4103 
Q 622 4206 622 4353 
z
M 1356 331 
L 1900 331 
L 1900 0 
L 231 0 
L 231 331 
L 781 331 
L 781 2988 
L 231 2988 
L 231 3322 
L 1356 3322 
L 1356 331 
z
" transform="scale(0.015625)"/>
       <path id="DejaVuSerif-79" d="M 1381 -609 
L 1600 -56 
L 359 2988 
L -19 2988 
L -19 3322 
L 1509 3322 
L 1509 2988 
L 978 2988 
L 1913 703 
L 2847 2988 
L 2350 2988 
L 2350 3322 
L 3597 3322 
L 3597 2988 
L 3225 2988 
L 1703 -750 
Q 1547 -1138 1356 -1280 
Q 1166 -1422 819 -1422 
Q 672 -1422 517 -1397 
Q 363 -1372 206 -1325 
L 206 -691 
L 500 -691 
Q 519 -903 608 -995 
Q 697 -1088 884 -1088 
Q 1056 -1088 1161 -992 
Q 1266 -897 1381 -609 
z
" transform="scale(0.015625)"/>
       <path id="DejaVuSerif-61" d="M 2547 1044 
L 2547 1747 
L 1806 1747 
Q 1378 1747 1168 1562 
Q 959 1378 959 997 
Q 959 650 1171 447 
Q 1384 244 1747 244 
Q 2106 244 2326 466 
Q 2547 688 2547 1044 
z
M 3122 2075 
L 3122 331 
L 3634 331 
L 3634 0 
L 2547 0 
L 2547 359 
Q 2356 128 2106 18 
Q 1856 -91 1522 -91 
Q 969 -91 644 203 
Q 319 497 319 997 
Q 319 1513 691 1797 
Q 1063 2081 1741 2081 
L 2547 2081 
L 2547 2309 
Q 2547 2688 2317 2895 
Q 2088 3103 1672 3103 
Q 1328 3103 1125 2947 
Q 922 2791 872 2484 
L 575 2484 
L 575 3156 
Q 875 3284 1158 3348 
Q 1441 3413 1709 3413 
Q 2400 3413 2761 3070 
Q 3122 2728 3122 2075 
z
" transform="scale(0.015625)"/>
       <path id="DejaVuSerif-72" d="M 3059 3328 
L 3059 2497 
L 2728 2497 
Q 2713 2744 2591 2866 
Q 2469 2988 2234 2988 
Q 1809 2988 1582 2694 
Q 1356 2400 1356 1850 
L 1356 331 
L 2022 331 
L 2022 0 
L 263 0 
L 263 331 
L 781 331 
L 781 2994 
L 231 2994 
L 231 3322 
L 1356 3322 
L 1356 2731 
Q 1525 3078 1790 3245 
Q 2056 3413 2438 3413 
Q 2578 3413 2733 3391 
Q 2888 3369 3059 3328 
z
" transform="scale(0.015625)"/>
       <path id="DejaVuSerif-62" d="M 738 331 
L 738 4531 
L 184 4531 
L 184 4863 
L 1313 4863 
L 1313 2803 
Q 1481 3116 1742 3264 
Q 2003 3413 2388 3413 
Q 3000 3413 3387 2928 
Q 3775 2444 3775 1663 
Q 3775 881 3387 395 
Q 3000 -91 2388 -91 
Q 2003 -91 1742 57 
Q 1481 206 1313 519 
L 1313 0 
L 184 0 
L 184 331 
L 738 331 
z
M 1313 1497 
Q 1313 897 1542 583 
Q 1772 269 2209 269 
Q 2650 269 2876 622 
Q 3103 975 3103 1663 
Q 3103 2353 2876 2703 
Q 2650 3053 2209 3053 
Q 1772 3053 1542 2737 
Q 1313 2422 1313 1825 
L 1313 1497 
z
" transform="scale(0.015625)"/>
      </defs>
      <use xlink:href="#DejaVuSerif-49"/>
      <use xlink:href="#DejaVuSerif-6e" transform="translate(39.501953 0)"/>
      <use xlink:href="#DejaVuSerif-74" transform="translate(103.90625 0)"/>
      <use xlink:href="#DejaVuSerif-65" transform="translate(144.091797 0)"/>
      <use xlink:href="#DejaVuSerif-6e" transform="translate(203.271484 0)"/>
      <use xlink:href="#DejaVuSerif-73" transform="translate(267.675781 0)"/>
      <use xlink:href="#DejaVuSerif-69" transform="translate(318.994141 0)"/>
      <use xlink:href="#DejaVuSerif-74" transform="translate(350.976562 0)"/>
      <use xlink:href="#DejaVuSerif-79" transform="translate(391.162109 0)"/>
      <use xlink:href="#DejaVuSerif-20" transform="translate(447.65625 0)"/>
      <use xlink:href="#DejaVuSerif-28" transform="translate(479.443359 0)"/>
      <use xlink:href="#DejaVuSerif-61" transform="translate(518.457031 0)"/>
      <use xlink:href="#DejaVuSerif-72" transform="translate(578.076172 0)"/>
      <use xlink:href="#DejaVuSerif-62" transform="translate(625.878906 0)"/>
      <use xlink:href="#DejaVuSerif-2e" transform="translate(689.892578 0)"/>
      <use xlink:href="#DejaVuSerif-20" transform="translate(721.679688 0)"/>
      <use xlink:href="#DejaVuSerif-75" transform="translate(753.466797 0)"/>
      <use xlink:href="#DejaVuSerif-6e" transform="translate(817.871094 0)"/>
      <use xlink:href="#DejaVuSerif-69" transform="translate(882.275391 0)"/>
      <use xlink:href="#DejaVuSerif-74" transform="translate(914.257812 0)"/>
      <use xlink:href="#DejaVuSerif-73" transform="translate(954.443359 0)"/>
      <use xlink:href="#DejaVuSerif-29" transform="translate(1005.761719 0)"/>
     </g>
    </g>
   </g>
   <g id="line2d_13">
    <path d="M 26.931391 251.160294 
L 27.07397 260.076527 
L 27.216549 260.572293 
L 27.359128 254.133002 
L 27.501707 259.58076 
L 27.786865 254.626877 
L 28.072023 266.515818 
L 28.214602 254.626877 
L 28.357181 252.645702 
L 28.49976 254.133002 
L 28.642339 247.197944 
L 28.784918 256.608051 
L 28.927497 255.61841 
L 29.070076 245.216769 
L 29.212655 256.114177 
L 29.355234 251.160294 
L 29.497813 251.160294 
L 29.640392 248.187586 
L 29.782971 256.608051 
L 30.068129 251.160294 
L 30.210708 266.515818 
L 30.353287 260.076527 
L 30.495866 246.206411 
L 30.781024 257.599585 
L 31.208761 247.691819 
L 31.35134 252.645702 
L 31.493918 261.561935 
L 31.636497 260.076527 
L 31.779076 246.206411 
L 31.921655 247.691819 
L 32.206813 253.141469 
L 32.349392 259.084993 
L 32.491971 253.141469 
L 32.777129 258.591119 
L 33.062287 252.149935 
L 33.204866 258.095352 
L 33.347445 249.179119 
L 33.632603 260.076527 
L 33.775182 250.664527 
L 34.06034 254.626877 
L 34.202919 257.599585 
L 34.488077 249.674886 
L 34.773235 253.141469 
L 34.915814 246.206411 
L 35.058393 247.197944 
L 35.200972 254.133002 
L 35.343551 246.702177 
L 35.48613 250.664527 
L 35.628709 250.664527 
L 35.771288 255.122643 
L 35.913867 251.160294 
L 36.056446 255.122643 
L 36.199025 250.664527 
L 36.341604 253.637235 
L 36.484182 249.674886 
L 36.626761 239.76712 
L 36.76934 254.133002 
L 36.911919 248.683352 
L 37.054498 249.179119 
L 37.197077 259.084993 
L 37.482235 251.656061 
L 37.624814 243.233702 
L 37.909972 259.084993 
L 38.052551 255.122643 
L 38.19513 245.216769 
L 38.480288 257.599585 
L 38.622867 254.626877 
L 38.765446 247.691819 
L 38.908025 257.599585 
L 39.050604 249.674886 
L 39.193183 265.03041 
L 39.335762 254.133002 
L 39.478341 260.572293 
L 39.62092 249.179119 
L 39.906078 253.637235 
L 40.048657 252.149935 
L 40.191236 256.114177 
L 40.333815 253.141469 
L 40.618973 243.729469 
L 40.761552 257.599585 
L 40.904131 255.61841 
L 41.04671 246.206411 
L 41.189289 247.197944 
L 41.331867 251.656061 
L 41.474446 260.076527 
L 41.759604 248.187586 
L 41.902183 246.206411 
L 42.044762 249.179119 
L 42.187341 259.084993 
L 42.32992 240.758653 
L 42.615078 258.591119 
L 42.757657 258.095352 
L 43.185394 245.710644 
L 43.327973 248.187586 
L 43.470552 259.084993 
L 43.613131 260.572293 
L 44.040868 245.710644 
L 44.183447 259.084993 
L 44.468605 245.710644 
L 44.753763 251.656061 
L 44.896342 240.262886 
L 45.1815 246.206411 
L 45.324079 257.103818 
L 45.466658 257.103818 
L 45.609237 259.58076 
L 45.751816 252.149935 
L 45.894395 258.095352 
L 46.179553 253.637235 
L 46.322131 248.187586 
L 46.607289 253.637235 
L 46.749868 244.225236 
L 46.892447 261.06806 
L 47.035026 260.076527 
L 47.177605 244.225236 
L 47.320184 252.645702 
L 47.462763 243.233702 
L 47.605342 247.197944 
L 47.747921 257.599585 
L 47.8905 247.197944 
L 48.175658 256.608051 
L 48.318237 238.281712 
L 48.460816 253.637235 
L 48.603395 250.16876 
L 48.745974 250.16876 
L 48.888553 243.233702 
L 49.031132 243.233702 
L 49.31629 250.664527 
L 49.458869 250.16876 
L 49.601448 244.225236 
L 49.744027 256.114177 
L 50.029185 248.187586 
L 50.171764 262.057701 
L 50.314343 260.076527 
L 50.456922 249.674886 
L 50.599501 251.656061 
L 50.74208 249.674886 
L 50.884659 253.637235 
L 51.027238 241.748294 
L 51.169817 256.114177 
L 51.312395 236.794411 
L 51.597553 258.095352 
L 51.740132 252.149935 
L 51.882711 252.645702 
L 52.02529 250.664527 
L 52.167869 252.149935 
L 52.453027 250.16876 
L 52.595606 240.262886 
L 52.738185 251.160294 
L 52.880764 247.197944 
L 53.023343 253.637235 
L 53.165922 239.271353 
L 53.308501 246.702177 
L 53.45108 241.252528 
L 53.736238 249.674886 
L 53.878817 245.710644 
L 54.021396 253.141469 
L 54.163975 250.16876 
L 54.306554 250.16876 
L 54.449133 258.591119 
L 54.591712 252.149935 
L 54.734291 251.656061 
L 55.019449 243.233702 
L 55.304607 250.664527 
L 55.447186 247.691819 
L 55.589765 252.645702 
L 55.732344 237.785945 
L 55.874923 249.179119 
L 56.017502 251.656061 
L 56.16008 243.233702 
L 56.302659 251.656061 
L 56.445238 246.206411 
L 56.587817 245.216769 
L 56.730396 248.683352 
L 56.872975 268.496992 
L 57.015554 254.133002 
L 57.300712 254.133002 
L 57.443291 253.637235 
L 57.871028 239.76712 
L 58.013607 240.758653 
L 58.156186 245.710644 
L 58.298765 237.785945 
L 58.441344 249.179119 
L 58.583923 249.179119 
L 58.726502 250.664527 
L 58.869081 248.683352 
L 59.01166 241.252528 
L 59.154239 243.233702 
L 59.296818 249.674886 
L 59.439397 243.233702 
L 59.581976 242.244061 
L 59.724555 242.244061 
L 59.867134 241.252528 
L 60.009713 242.739828 
L 60.152292 236.300537 
L 60.294871 237.785945 
L 60.43745 246.206411 
L 60.580029 239.271353 
L 60.722608 237.785945 
L 60.865187 227.382412 
L 61.007766 229.365479 
L 61.292923 248.683352 
L 61.435502 241.252528 
L 61.578081 247.691819 
L 61.72066 241.748294 
L 61.863239 253.637235 
L 62.005818 254.626877 
L 62.148397 240.758653 
L 62.290976 249.179119 
L 62.433555 245.216769 
L 62.718713 256.608051 
L 63.003871 240.758653 
L 63.289029 259.58076 
L 63.431608 244.721003 
L 63.574187 244.721003 
L 63.716766 248.683352 
L 63.859345 247.197944 
L 64.001924 216.980771 
L 64.287082 243.729469 
L 64.429661 240.758653 
L 64.714819 226.888537 
L 64.857398 227.382412 
L 64.999977 216.980771 
L 65.142556 226.888537 
L 65.285135 245.216769 
L 65.712872 236.794411 
L 65.99803 248.187586 
L 66.140608 244.225236 
L 66.283187 248.187586 
L 66.425766 248.187586 
L 66.568345 239.271353 
L 66.710924 240.262886 
L 66.853503 250.664527 
L 66.996082 249.674886 
L 67.138661 255.61841 
L 67.28124 255.122643 
L 67.423819 256.608051 
L 67.566398 246.206411 
L 67.851556 256.114177 
L 68.136714 249.674886 
L 68.279293 251.656061 
L 68.421872 265.526176 
L 68.564451 244.225236 
L 68.70703 242.739828 
L 68.849609 250.664527 
L 68.992188 240.262886 
L 69.134767 252.149935 
L 69.419925 243.233702 
L 69.562504 251.656061 
L 69.705083 240.758653 
L 69.847662 264.534643 
L 69.990241 257.599585 
L 70.13282 243.729469 
L 70.275399 249.674886 
L 70.417978 239.76712 
L 70.560557 240.262886 
L 70.703136 249.674886 
L 70.845715 242.739828 
L 70.988293 255.61841 
L 71.130872 250.16876 
L 71.273451 252.149935 
L 71.41603 257.103818 
L 71.701188 236.794411 
L 71.843767 254.626877 
L 71.986346 243.729469 
L 72.128925 245.710644 
L 72.271504 260.076527 
L 72.414083 240.758653 
L 72.556662 259.58076 
L 72.699241 244.225236 
L 72.84182 256.114177 
L 72.984399 243.233702 
L 73.126978 241.252528 
L 73.269557 256.114177 
L 73.412136 254.626877 
L 73.554715 250.664527 
L 73.697294 256.114177 
L 73.839873 253.141469 
L 74.125031 238.775586 
L 74.26761 241.252528 
L 74.410189 255.61841 
L 74.552768 256.608051 
L 74.695347 235.80477 
L 74.837926 248.187586 
L 75.123084 234.813236 
L 75.265663 254.133002 
L 75.408242 239.271353 
L 75.6934 251.656061 
L 75.978557 235.80477 
L 76.263715 251.160294 
L 76.406294 248.187586 
L 76.548873 251.656061 
L 76.691452 258.591119 
L 76.97661 239.76712 
L 77.119189 242.739828 
L 77.261768 242.739828 
L 77.404347 244.721003 
L 77.546926 237.290178 
L 77.689505 251.656061 
L 77.832084 243.233702 
L 77.974663 247.691819 
L 78.117242 246.206411 
L 78.259821 246.702177 
L 78.4024 249.674886 
L 78.544979 237.290178 
L 78.687558 249.674886 
L 78.830137 250.664527 
L 79.115295 241.252528 
L 79.257874 249.674886 
L 79.400453 248.683352 
L 79.543032 248.683352 
L 79.685611 246.702177 
L 79.82819 256.608051 
L 80.255927 244.721003 
L 80.398506 245.710644 
L 80.541085 245.710644 
L 80.683664 250.16876 
L 80.826243 245.216769 
L 80.968821 235.80477 
L 81.1114 257.599585 
L 81.253979 238.281712 
L 81.396558 249.674886 
L 81.681716 238.281712 
L 81.824295 259.58076 
L 82.109453 245.216769 
L 82.394611 261.06806 
L 82.53719 233.823595 
L 82.822348 257.103818 
L 82.964927 239.271353 
L 83.107506 251.160294 
L 83.392664 237.785945 
L 83.677822 250.664527 
L 83.96298 237.785945 
L 84.105559 242.244061 
L 84.248138 242.244061 
L 84.390717 246.702177 
L 84.533296 255.61841 
L 84.675875 252.645702 
L 84.818454 256.608051 
L 84.961033 256.114177 
L 85.103612 247.197944 
L 85.246191 246.702177 
L 85.38877 239.76712 
L 85.673928 255.122643 
L 85.816506 255.61841 
L 86.101664 252.149935 
L 86.386822 245.216769 
L 86.529401 254.133002 
L 86.67198 248.187586 
L 86.814559 252.149935 
L 87.099717 240.758653 
L 87.242296 245.710644 
L 87.384875 255.122643 
L 87.527454 234.813236 
L 87.670033 253.637235 
L 87.812612 245.216769 
L 87.955191 252.645702 
L 88.09777 244.225236 
L 88.240349 257.103818 
L 88.525507 246.702177 
L 88.668086 241.748294 
L 88.953244 250.16876 
L 89.095823 241.252528 
L 89.238402 245.710644 
L 89.380981 239.271353 
L 89.52356 256.114177 
L 89.666139 237.290178 
L 89.808718 242.739828 
L 89.951297 254.133002 
L 90.093876 246.206411 
L 90.236455 246.206411 
L 90.379034 260.572293 
L 90.664192 239.271353 
L 90.80677 249.179119 
L 90.949349 239.271353 
L 91.091928 260.572293 
L 91.234507 238.775586 
L 91.377086 243.233702 
L 91.519665 239.271353 
L 91.662244 248.187586 
L 91.804823 247.197944 
L 91.947402 248.683352 
L 92.089981 246.702177 
L 92.23256 239.76712 
L 92.375139 242.739828 
L 92.517718 255.122643 
L 92.802876 236.794411 
L 92.945455 243.729469 
L 93.088034 256.114177 
L 93.230613 238.775586 
L 93.515771 243.233702 
L 93.65835 237.785945 
L 93.800929 238.775586 
L 93.943508 246.702177 
L 94.086087 243.729469 
L 94.228666 247.691819 
L 94.371245 236.794411 
L 94.513824 248.187586 
L 94.798982 241.252528 
L 94.941561 227.382412 
L 95.08414 240.262886 
L 95.226719 231.346654 
L 95.369298 244.721003 
L 95.511877 246.206411 
L 95.654456 236.794411 
L 95.797034 236.300537 
L 95.939613 224.411596 
L 96.082192 223.420062 
L 96.224771 229.365479 
L 96.509929 207.073005 
L 96.652508 205.09183 
L 96.795087 192.709015 
L 97.080245 150.604793 
L 97.365403 140.697026 
L 97.507982 141.68856 
L 97.935719 171.408074 
L 98.078298 155.556783 
L 98.363456 163.483375 
L 98.506035 158.529492 
L 98.648614 163.483375 
L 98.933772 132.770435 
L 99.21893 86.703863 
L 99.361509 78.283397 
L 99.646667 59.459398 
L 99.789246 95.124329 
L 99.931825 96.115863 
L 100.216983 126.331144 
L 100.502141 147.632084 
L 100.644719 193.204781 
L 100.787298 180.324307 
L 101.072456 190.232073 
L 101.215035 209.056072 
L 101.357614 203.606422 
L 101.500193 203.606422 
L 101.642772 210.54148 
L 102.070509 198.156772 
L 102.213088 209.056072 
L 102.355667 191.717481 
L 102.640825 220.943121 
L 102.783404 215.495363 
L 102.925983 229.365479 
L 103.068562 214.999596 
L 103.35372 246.206411 
L 103.496299 229.365479 
L 103.638878 246.206411 
L 103.781457 243.233702 
L 103.924036 223.915829 
L 104.066615 224.411596 
L 104.351773 237.290178 
L 104.636931 228.373945 
L 104.77951 229.365479 
L 104.922089 242.739828 
L 105.349826 223.420062 
L 105.492405 232.832062 
L 105.634983 233.327828 
L 105.777562 230.35512 
L 106.06272 255.122643 
L 106.205299 241.748294 
L 106.490457 245.216769 
L 106.633036 235.80477 
L 106.775615 242.244061 
L 106.918194 243.233702 
L 107.060773 248.187586 
L 107.203352 235.80477 
L 107.345931 245.216769 
L 107.631089 232.832062 
L 107.773668 232.832062 
L 107.916247 243.729469 
L 108.201405 239.271353 
L 108.343984 243.729469 
L 108.486563 240.758653 
L 108.629142 251.656061 
L 108.771721 241.748294 
L 108.9143 241.252528 
L 109.199458 251.160294 
L 109.342037 243.729469 
L 109.484616 251.656061 
L 109.627195 231.840528 
L 109.769774 247.197944 
L 109.912353 243.233702 
L 110.054932 233.327828 
L 110.197511 244.721003 
L 110.482669 235.80477 
L 110.625247 237.785945 
L 110.767826 246.702177 
L 110.910405 239.271353 
L 111.052984 240.758653 
L 111.195563 228.869712 
L 111.338142 233.327828 
L 111.480721 229.365479 
L 111.765879 253.637235 
L 111.908458 236.300537 
L 112.051037 249.674886 
L 112.336195 242.244061 
L 112.478774 237.785945 
L 112.621353 248.683352 
L 112.763932 249.179119 
L 113.04909 251.656061 
L 113.334248 230.850887 
L 113.619406 249.674886 
L 113.761985 242.244061 
L 113.904564 249.674886 
L 114.047143 239.271353 
L 114.189722 245.216769 
L 114.332301 238.281712 
L 114.47488 243.729469 
L 114.617459 237.290178 
L 114.760038 242.244061 
L 114.902617 233.823595 
L 115.045196 240.758653 
L 115.187775 232.336295 
L 115.330354 233.823595 
L 115.472932 217.972305 
L 115.615511 222.924295 
L 115.900669 243.233702 
L 116.043248 232.832062 
L 116.328406 248.683352 
L 116.470985 242.244061 
L 116.613564 251.656061 
L 116.756143 249.674886 
L 116.898722 250.16876 
L 117.041301 237.290178 
L 117.18388 251.656061 
L 117.326459 231.840528 
L 117.611617 247.197944 
L 117.754196 250.16876 
L 117.896775 246.206411 
L 118.039354 251.656061 
L 118.181933 239.271353 
L 118.324512 246.206411 
L 118.467091 238.775586 
L 118.60967 240.262886 
L 118.894828 248.683352 
L 119.037407 242.244061 
L 119.179986 242.244061 
L 119.322565 244.225236 
L 119.465144 244.225236 
L 119.607723 247.197944 
L 119.750302 244.225236 
L 119.892881 248.187586 
L 120.03546 246.206411 
L 120.178039 257.599585 
L 120.320618 242.739828 
L 120.463196 248.187586 
L 120.748354 245.216769 
L 120.890933 251.160294 
L 121.033512 249.179119 
L 121.176091 240.758653 
L 121.31867 249.179119 
L 121.461249 247.691819 
L 121.603828 249.179119 
L 121.888986 241.252528 
L 122.031565 252.645702 
L 122.316723 245.216769 
L 122.459302 249.179119 
L 122.601881 260.076527 
L 122.74446 246.206411 
L 122.887039 256.114177 
L 123.314776 234.31747 
L 123.457355 248.187586 
L 123.599934 236.794411 
L 123.742513 248.683352 
L 123.885092 241.252528 
L 124.027671 242.244061 
L 124.17025 240.262886 
L 124.312829 242.739828 
L 124.455408 254.133002 
L 124.597987 233.823595 
L 124.740566 260.572293 
L 124.883145 260.076527 
L 125.310882 237.785945 
L 125.45346 251.656061 
L 125.596039 242.244061 
L 125.738618 253.141469 
L 125.881197 240.758653 
L 126.308934 255.61841 
L 126.451513 249.674886 
L 126.594092 250.664527 
L 126.736671 237.290178 
L 126.87925 250.16876 
L 127.021829 252.645702 
L 127.306987 241.748294 
L 127.449566 236.300537 
L 127.734724 253.141469 
L 127.877303 237.290178 
L 128.019882 249.179119 
L 128.162461 242.739828 
L 128.30504 249.179119 
L 128.590198 247.197944 
L 128.732777 248.683352 
L 128.875356 240.758653 
L 129.017935 253.637235 
L 129.303093 233.327828 
L 129.588251 248.187586 
L 129.73083 242.739828 
L 129.873409 248.187586 
L 130.015988 244.225236 
L 130.158567 252.149935 
L 130.301145 231.840528 
L 130.443724 240.758653 
L 130.728882 235.309003 
L 130.871461 239.271353 
L 131.01404 226.888537 
L 131.156619 227.878179 
L 131.299198 241.252528 
L 131.441777 231.840528 
L 131.726935 230.850887 
L 131.869514 228.373945 
L 132.154672 254.133002 
L 132.43983 231.346654 
L 132.582409 232.832062 
L 132.724988 244.721003 
L 132.867567 237.785945 
L 133.010146 244.225236 
L 133.152725 244.721003 
L 133.295304 239.76712 
L 133.437883 240.758653 
L 133.580462 235.80477 
L 133.723041 238.775586 
L 133.86562 235.80477 
L 134.008199 235.309003 
L 134.150778 242.244061 
L 134.435936 227.382412 
L 134.578515 229.859353 
L 134.721094 218.466179 
L 134.863673 224.411596 
L 135.148831 210.54148 
L 135.291409 196.175597 
L 135.433988 198.652539 
L 135.719146 160.0149 
L 135.861725 162.987608 
L 136.004304 180.820073 
L 136.146883 155.062909 
L 136.432041 175.372316 
L 136.57462 151.098667 
L 137.002357 205.09183 
L 137.144936 192.213248 
L 137.287515 193.204781 
L 137.430094 216.980771 
L 137.572673 207.073005 
L 137.715252 223.420062 
L 137.857831 222.924295 
L 138.00041 208.064538 
L 138.285568 239.76712 
L 138.428147 221.438887 
L 138.570726 240.262886 
L 138.855884 230.35512 
L 138.998463 236.794411 
L 139.141042 233.823595 
L 139.283621 243.233702 
L 139.4262 230.35512 
L 139.853937 246.702177 
L 139.996516 236.300537 
L 140.139095 242.244061 
L 140.281673 235.80477 
L 140.424252 249.179119 
L 140.566831 246.702177 
L 140.70941 239.271353 
L 140.994568 248.187586 
L 141.137147 234.31747 
L 141.422305 258.095352 
L 141.564884 242.739828 
L 141.707463 242.244061 
L 141.850042 230.850887 
L 141.992621 240.758653 
L 142.1352 259.084993 
L 142.277779 235.80477 
L 142.420358 233.327828 
L 142.562937 244.721003 
L 142.705516 233.327828 
L 142.848095 234.31747 
L 142.990674 247.691819 
L 143.133253 237.785945 
L 143.418411 246.206411 
L 143.56099 245.710644 
L 143.703569 247.691819 
L 143.846148 246.702177 
L 144.131306 241.748294 
L 144.416464 251.656061 
L 144.559043 247.197944 
L 144.701622 236.300537 
L 144.844201 243.233702 
L 144.98678 235.80477 
L 145.129358 246.206411 
L 145.271937 239.271353 
L 145.414516 238.281712 
L 145.557095 231.840528 
L 145.842253 240.262886 
L 145.984832 241.252528 
L 146.127411 235.80477 
L 146.26999 221.934654 
L 146.412569 241.748294 
L 146.555148 233.823595 
L 146.697727 238.775586 
L 146.840306 221.438887 
L 146.982885 232.832062 
L 147.268043 207.073005 
L 147.553201 236.300537 
L 147.69578 218.466179 
L 147.980938 232.336295 
L 148.123517 240.262886 
L 148.266096 233.327828 
L 148.551254 244.721003 
L 148.693833 247.197944 
L 148.836412 238.775586 
L 149.12157 243.729469 
L 149.264149 242.244061 
L 149.406728 247.197944 
L 149.549307 244.225236 
L 149.691886 230.35512 
L 149.834465 246.702177 
L 150.262201 242.244061 
L 150.40478 242.739828 
L 150.547359 243.729469 
L 150.689938 246.206411 
L 150.832517 246.206411 
L 150.975096 250.664527 
L 151.117675 236.794411 
L 151.260254 248.683352 
L 151.402833 237.290178 
L 151.545412 250.16876 
L 151.687991 248.683352 
L 151.83057 243.233702 
L 151.973149 246.702177 
L 152.115728 237.785945 
L 152.258307 239.271353 
L 152.400886 257.599585 
L 152.686044 242.739828 
L 152.828623 234.813236 
L 153.113781 239.76712 
L 153.25636 232.336295 
L 153.398939 236.794411 
L 153.541518 260.076527 
L 153.826676 235.80477 
L 153.969255 257.599585 
L 154.254413 241.748294 
L 154.396992 254.133002 
L 154.539571 242.739828 
L 154.68215 251.656061 
L 154.824729 246.702177 
L 154.967308 245.710644 
L 155.109886 256.608051 
L 155.395044 246.702177 
L 155.537623 243.233702 
L 155.680202 259.58076 
L 155.96536 247.691819 
L 156.107939 247.691819 
L 156.393097 237.785945 
L 156.535676 247.691819 
L 156.678255 234.31747 
L 157.105992 253.141469 
L 157.248571 248.187586 
L 157.39115 247.197944 
L 157.533729 247.197944 
L 157.676308 250.16876 
L 157.818887 238.281712 
L 157.961466 240.758653 
L 158.104045 234.31747 
L 158.389203 252.149935 
L 158.531782 249.674886 
L 158.674361 241.748294 
L 158.81694 243.729469 
L 158.959519 228.869712 
L 159.244677 260.076527 
L 159.672414 246.702177 
L 159.814993 246.702177 
L 159.957571 252.149935 
L 160.10015 262.553468 
L 160.242729 240.758653 
L 160.527887 231.346654 
L 160.813045 243.233702 
L 160.955624 241.748294 
L 161.098203 234.31747 
L 161.240782 245.710644 
L 161.383361 240.758653 
L 161.52594 241.252528 
L 161.668519 231.840528 
L 161.811098 254.626877 
L 161.953677 241.252528 
L 162.096256 240.262886 
L 162.238835 251.656061 
L 162.523993 233.823595 
L 162.666572 245.216769 
L 162.95173 240.758653 
L 163.094309 244.225236 
L 163.236888 238.281712 
L 163.379467 243.729469 
L 163.664625 232.832062 
L 163.807204 242.244061 
L 163.949783 241.748294 
L 164.092362 240.262886 
L 164.37752 233.823595 
L 164.520099 243.233702 
L 164.662678 235.309003 
L 164.805257 235.80477 
L 164.947835 221.438887 
L 165.090414 239.271353 
L 165.375572 207.568772 
L 165.518151 209.549946 
L 165.66073 202.614888 
L 165.803309 211.037247 
L 165.945888 197.662898 
L 166.088467 206.57913 
L 166.231046 205.587597 
L 166.373625 206.57913 
L 166.658783 216.485004 
L 166.801362 213.018421 
L 166.943941 227.382412 
L 167.08652 213.514188 
L 167.229099 236.300537 
L 167.514257 234.31747 
L 167.656836 243.729469 
L 167.799415 237.290178 
L 167.941994 239.76712 
L 168.084573 227.878179 
L 168.227152 250.16876 
L 168.369731 245.710644 
L 168.51231 251.656061 
L 168.654889 247.197944 
L 168.797468 247.691819 
L 168.940047 241.748294 
L 169.082626 230.850887 
L 169.367784 250.16876 
L 169.510363 237.785945 
L 169.652942 242.244061 
L 169.795521 241.748294 
L 169.938099 234.31747 
L 170.080678 251.656061 
L 170.223257 238.281712 
L 170.508415 256.114177 
L 170.650994 243.729469 
L 170.793573 247.197944 
L 170.936152 241.252528 
L 171.078731 245.710644 
L 171.22131 240.262886 
L 171.363889 247.197944 
L 171.506468 247.691819 
L 171.649047 251.160294 
L 171.934205 239.271353 
L 172.076784 248.187586 
L 172.219363 247.691819 
L 172.361942 250.664527 
L 172.504521 240.758653 
L 172.789679 242.739828 
L 172.932258 248.683352 
L 173.074837 246.206411 
L 173.217416 237.290178 
L 173.359995 239.271353 
L 173.502574 238.281712 
L 173.645153 252.149935 
L 173.930311 249.179119 
L 174.07289 239.76712 
L 174.215469 244.225236 
L 174.358048 239.271353 
L 174.500627 239.271353 
L 174.643206 238.281712 
L 174.785784 248.683352 
L 174.928363 250.664527 
L 175.070942 246.702177 
L 175.213521 246.206411 
L 175.3561 249.674886 
L 175.498679 241.748294 
L 175.641258 242.244061 
L 175.783837 247.691819 
L 175.926416 234.31747 
L 176.068995 247.691819 
L 176.211574 248.683352 
L 176.354153 243.729469 
L 176.496732 253.637235 
L 176.78189 240.262886 
L 176.924469 248.683352 
L 177.067048 242.739828 
L 177.209627 245.216769 
L 177.352206 242.244061 
L 177.494785 248.683352 
L 177.637364 243.233702 
L 177.779943 232.832062 
L 177.922522 246.702177 
L 178.065101 247.691819 
L 178.20768 239.76712 
L 178.350259 238.775586 
L 178.492838 236.794411 
L 178.635417 247.197944 
L 178.777996 239.76712 
L 178.920575 244.225236 
L 179.063154 235.309003 
L 179.205733 248.683352 
L 179.348312 241.252528 
L 179.490891 255.122643 
L 179.63347 243.233702 
L 179.776048 243.233702 
L 179.918627 246.206411 
L 180.061206 243.729469 
L 180.203785 244.721003 
L 180.346364 238.775586 
L 180.488943 252.149935 
L 180.774101 240.758653 
L 180.91668 248.683352 
L 181.059259 230.850887 
L 181.201838 252.645702 
L 181.486996 237.785945 
L 181.629575 233.327828 
L 181.914733 242.739828 
L 182.057312 240.758653 
L 182.199891 250.664527 
L 182.34247 234.31747 
L 182.485049 233.823595 
L 182.770207 247.197944 
L 182.912786 248.683352 
L 183.055365 226.888537 
L 183.340523 247.197944 
L 183.483102 243.233702 
L 183.625681 248.187586 
L 183.76826 240.758653 
L 183.910839 240.262886 
L 184.053418 243.233702 
L 184.195997 231.840528 
L 184.338576 249.179119 
L 184.623734 242.244061 
L 184.766312 250.16876 
L 184.908891 241.748294 
L 185.05147 248.187586 
L 185.194049 234.31747 
L 185.336628 249.179119 
L 185.479207 236.300537 
L 185.621786 242.244061 
L 185.906944 231.840528 
L 186.192102 245.710644 
L 186.334681 236.794411 
L 186.47726 247.197944 
L 186.619839 245.216769 
L 186.762418 239.271353 
L 186.904997 239.76712 
L 187.047576 252.149935 
L 187.190155 248.187586 
L 187.332734 250.664527 
L 187.475313 240.262886 
L 187.617892 253.637235 
L 187.760471 237.785945 
L 187.90305 241.748294 
L 188.045629 239.271353 
L 188.188208 239.271353 
L 188.330787 244.225236 
L 188.473366 240.758653 
L 188.615945 241.748294 
L 188.758524 234.813236 
L 188.901103 244.225236 
L 189.043682 243.729469 
L 189.32884 245.216769 
L 189.471419 236.794411 
L 189.613997 240.758653 
L 189.756576 240.758653 
L 189.899155 237.290178 
L 190.041734 230.35512 
L 190.184313 230.850887 
L 190.469471 221.438887 
L 190.61205 232.832062 
L 190.754629 223.915829 
L 191.039787 232.832062 
L 191.324945 220.449246 
L 191.467524 224.411596 
L 191.610103 238.281712 
L 191.752682 236.794411 
L 191.895261 237.785945 
L 192.03784 233.327828 
L 192.322998 245.216769 
L 192.465577 220.943121 
L 192.608156 232.832062 
L 192.750735 230.850887 
L 192.893314 246.702177 
L 193.035893 242.244061 
L 193.178472 248.683352 
L 193.321051 239.271353 
L 193.46363 243.233702 
L 193.606209 240.758653 
L 193.748788 228.869712 
L 194.033946 249.179119 
L 194.176525 243.233702 
L 194.319104 245.216769 
L 194.461683 232.336295 
L 194.604261 252.645702 
L 194.889419 237.785945 
L 195.031998 244.721003 
L 195.174577 244.225236 
L 195.317156 251.160294 
L 195.602314 221.438887 
L 195.887472 247.197944 
L 196.030051 242.244061 
L 196.17263 242.739828 
L 196.315209 252.645702 
L 196.600367 234.813236 
L 196.885525 243.233702 
L 197.313262 231.840528 
L 197.740999 247.691819 
L 197.883578 233.823595 
L 198.026157 257.103818 
L 198.168736 237.785945 
L 198.453894 245.216769 
L 198.596473 246.206411 
L 198.739052 248.683352 
L 198.881631 239.271353 
L 199.02421 254.626877 
L 199.166789 247.691819 
L 199.309368 235.309003 
L 199.451947 241.748294 
L 199.594525 239.271353 
L 199.737104 242.739828 
L 199.879683 251.160294 
L 200.022262 246.206411 
L 200.164841 230.850887 
L 200.30742 256.608051 
L 200.449999 245.216769 
L 200.592578 248.683352 
L 201.020315 245.216769 
L 201.305473 236.300537 
L 201.448052 234.813236 
L 201.590631 238.775586 
L 201.73321 255.61841 
L 201.875789 248.187586 
L 202.018368 247.691819 
L 202.160947 248.187586 
L 202.303526 240.262886 
L 202.446105 244.225236 
L 202.731263 236.794411 
L 202.873842 245.216769 
L 203.301579 236.300537 
L 203.586737 244.225236 
L 203.729316 234.31747 
L 203.871895 253.141469 
L 204.014474 235.309003 
L 204.299632 252.149935 
L 204.44221 245.710644 
L 204.584789 255.122643 
L 204.727368 238.775586 
L 204.869947 250.16876 
L 205.012526 244.721003 
L 205.155105 243.729469 
L 205.297684 240.262886 
L 205.440263 250.16876 
L 205.582842 240.758653 
L 205.725421 254.133002 
L 206.010579 240.758653 
L 206.153158 240.262886 
L 206.295737 244.721003 
L 206.438316 241.252528 
L 206.866053 254.626877 
L 207.008632 252.645702 
L 207.151211 267.507351 
L 207.436369 238.281712 
L 207.578948 237.290178 
L 207.721527 241.252528 
L 207.864106 251.160294 
L 208.006685 251.656061 
L 208.291843 234.813236 
L 208.434422 244.225236 
L 208.577001 234.31747 
L 208.71958 251.160294 
L 208.862159 244.721003 
L 209.004738 252.149935 
L 209.147317 248.683352 
L 209.289896 237.290178 
L 209.432474 242.739828 
L 209.575053 241.748294 
L 209.717632 232.832062 
L 209.860211 257.599585 
L 210.00279 240.262886 
L 210.145369 241.252528 
L 210.287948 247.197944 
L 210.430527 229.859353 
L 210.573106 232.336295 
L 210.715685 237.785945 
L 210.858264 257.103818 
L 211.143422 233.327828 
L 211.286001 244.225236 
L 211.42858 241.748294 
L 211.713738 251.656061 
L 211.856317 235.80477 
L 211.998896 233.823595 
L 212.141475 236.300537 
L 212.426633 243.729469 
L 212.569212 246.206411 
L 212.711791 242.739828 
L 212.85437 243.233702 
L 213.139528 245.710644 
L 213.282107 238.775586 
L 213.709844 248.683352 
L 213.852423 249.179119 
L 213.995002 242.739828 
L 214.137581 255.122643 
L 214.28016 241.748294 
L 214.422738 245.710644 
L 214.565317 255.122643 
L 214.707896 245.216769 
L 214.850475 248.187586 
L 214.993054 243.233702 
L 215.135633 247.691819 
L 215.278212 243.233702 
L 215.420791 250.664527 
L 215.56337 239.76712 
L 215.705949 252.149935 
L 215.848528 251.160294 
L 215.991107 244.225236 
L 216.133686 231.346654 
L 216.276265 250.16876 
L 216.418844 236.794411 
L 216.704002 241.748294 
L 216.846581 235.309003 
L 216.98916 244.721003 
L 217.274318 235.309003 
L 217.416897 239.271353 
L 217.559476 238.281712 
L 217.702055 238.281712 
L 217.844634 245.216769 
L 217.987213 238.775586 
L 218.129792 251.656061 
L 218.41495 241.252528 
L 218.557529 223.915829 
L 218.700108 242.244061 
L 218.842687 245.216769 
L 219.127845 231.840528 
L 219.270423 222.924295 
L 219.69816 235.309003 
L 219.840739 227.878179 
L 219.983318 214.50383 
L 220.125897 213.514188 
L 220.268476 215.495363 
L 220.411055 223.915829 
L 220.696213 212.026888 
L 220.981371 232.336295 
L 221.266529 215.99113 
L 221.409108 235.309003 
L 221.551687 227.878179 
L 221.694266 229.859353 
L 221.979424 227.878179 
L 222.264582 238.281712 
L 222.54974 225.897004 
L 222.692319 233.823595 
L 222.834898 232.832062 
L 222.977477 242.739828 
L 223.120056 236.794411 
L 223.262635 239.76712 
L 223.405214 238.775586 
L 223.547793 239.76712 
L 223.97553 248.683352 
L 224.118109 242.244061 
L 224.260687 253.141469 
L 224.545845 240.758653 
L 224.688424 242.739828 
L 224.831003 236.300537 
L 224.973582 249.179119 
L 225.116161 248.187586 
L 225.543898 234.813236 
L 225.686477 234.813236 
L 225.829056 238.281712 
L 225.971635 237.290178 
L 226.256793 249.674886 
L 226.827109 236.794411 
L 227.112267 253.141469 
L 227.254846 252.645702 
L 227.397425 240.262886 
L 227.540004 254.626877 
L 227.825162 237.290178 
L 227.967741 245.710644 
L 228.11032 242.739828 
L 228.252899 254.133002 
L 228.538057 245.216769 
L 228.823215 242.244061 
L 228.965794 243.233702 
L 229.108373 243.233702 
L 229.250951 239.76712 
L 229.39353 254.626877 
L 229.678688 237.785945 
L 229.821267 247.197944 
L 229.963846 242.739828 
L 230.106425 248.683352 
L 230.249004 232.832062 
L 230.391583 250.16876 
L 230.534162 243.233702 
L 230.676741 249.674886 
L 230.81932 246.206411 
L 230.961899 247.197944 
L 231.104478 241.748294 
L 231.247057 251.656061 
L 231.389636 245.710644 
L 231.532215 244.721003 
L 231.674794 240.262886 
L 231.959952 252.149935 
L 232.102531 248.187586 
L 232.24511 253.637235 
L 232.387689 240.758653 
L 232.530268 246.702177 
L 232.672847 238.281712 
L 232.958005 248.187586 
L 233.100584 239.271353 
L 233.243163 239.76712 
L 233.528321 252.645702 
L 233.813479 231.346654 
L 234.098636 256.114177 
L 234.241215 239.271353 
L 234.383794 258.591119 
L 234.526373 244.225236 
L 234.668952 244.225236 
L 234.811531 256.114177 
L 234.95411 248.683352 
L 235.096689 247.691819 
L 235.239268 238.281712 
L 235.524426 248.187586 
L 235.667005 241.252528 
L 235.952163 244.721003 
L 236.094742 249.674886 
L 236.237321 250.16876 
L 236.3799 240.758653 
L 236.522479 240.262886 
L 236.665058 233.327828 
L 236.950216 249.674886 
L 237.092795 236.300537 
L 237.235374 243.233702 
L 237.377953 239.76712 
L 237.520532 242.739828 
L 237.663111 249.179119 
L 237.80569 246.206411 
L 238.090848 251.160294 
L 238.233427 245.216769 
L 238.376006 230.850887 
L 238.518585 249.179119 
L 238.661164 243.729469 
L 238.803743 254.133002 
L 238.946322 247.197944 
L 239.0889 247.197944 
L 239.231479 229.365479 
L 239.374058 247.691819 
L 239.516637 246.702177 
L 239.659216 242.244061 
L 239.801795 251.656061 
L 239.944374 243.233702 
L 240.086953 248.187586 
L 240.229532 239.271353 
L 240.51469 252.645702 
L 240.657269 249.674886 
L 240.799848 253.141469 
L 240.942427 250.664527 
L 241.227585 242.739828 
L 241.370164 242.739828 
L 241.512743 246.702177 
L 241.655322 238.281712 
L 241.797901 240.758653 
L 241.94048 238.775586 
L 242.083059 240.758653 
L 242.225638 246.206411 
L 242.368217 233.327828 
L 242.653375 239.76712 
L 242.795954 241.748294 
L 242.938533 233.823595 
L 243.081112 235.309003 
L 243.223691 238.775586 
L 243.36627 234.31747 
L 243.508849 234.31747 
L 243.651428 253.637235 
L 243.794007 237.785945 
L 243.936586 244.721003 
L 244.079164 232.336295 
L 244.221743 242.244061 
L 244.364322 237.785945 
L 244.506901 225.897004 
L 244.64948 243.233702 
L 244.792059 243.729469 
L 244.934638 233.327828 
L 245.077217 251.160294 
L 245.219796 244.225236 
L 245.362375 243.729469 
L 245.647533 245.710644 
L 245.790112 235.80477 
L 245.932691 247.197944 
L 246.07527 234.813236 
L 246.217849 241.748294 
L 246.930744 246.206411 
L 247.073323 242.244061 
L 247.215902 243.729469 
L 247.50106 236.794411 
L 247.643639 234.31747 
L 247.928797 240.758653 
L 248.071376 241.748294 
L 248.213955 241.748294 
L 248.356534 256.608051 
L 248.641692 243.729469 
L 248.784271 249.179119 
L 248.926849 248.683352 
L 249.069428 254.133002 
L 249.212007 243.729469 
L 249.354586 243.729469 
L 249.497165 248.683352 
L 249.639744 242.244061 
L 249.782323 250.664527 
L 249.924902 240.758653 
L 250.067481 240.758653 
L 250.21006 250.664527 
L 250.495218 242.244061 
L 250.637797 243.233702 
L 250.780376 253.637235 
L 250.922955 245.216769 
L 251.065534 245.216769 
L 251.208113 241.252528 
L 251.350692 243.729469 
L 251.493271 233.327828 
L 251.63585 243.233702 
L 251.778429 235.80477 
L 251.921008 238.775586 
L 252.063587 254.133002 
L 252.348745 246.206411 
L 252.491324 239.76712 
L 252.633903 243.233702 
L 252.776482 252.645702 
L 252.919061 242.244061 
L 253.06164 251.160294 
L 253.204219 238.281712 
L 253.346798 238.281712 
L 253.489377 240.758653 
L 253.774535 252.149935 
L 254.059692 240.758653 
L 254.202271 251.656061 
L 254.34485 249.674886 
L 254.487429 241.252528 
L 254.772587 246.206411 
L 254.915166 244.225236 
L 255.057745 235.80477 
L 255.200324 257.599585 
L 255.342903 239.271353 
L 255.485482 245.710644 
L 255.628061 257.599585 
L 255.913219 234.31747 
L 256.055798 236.300537 
L 256.198377 258.591119 
L 256.340956 247.197944 
L 256.483535 246.702177 
L 256.626114 246.702177 
L 256.768693 251.656061 
L 256.911272 249.179119 
L 257.053851 239.76712 
L 257.339009 247.197944 
L 257.481588 245.216769 
L 257.624167 241.252528 
L 257.766746 244.721003 
L 257.909325 235.80477 
L 258.051904 244.721003 
L 258.194483 240.758653 
L 258.337062 242.739828 
L 258.479641 240.262886 
L 258.62222 255.61841 
L 258.764799 242.244061 
L 258.907377 246.206411 
L 259.049956 246.206411 
L 259.192535 238.281712 
L 259.335114 247.197944 
L 259.477693 236.794411 
L 259.620272 238.281712 
L 259.90543 249.179119 
L 260.190588 241.748294 
L 260.333167 245.710644 
L 260.475746 245.710644 
L 260.618325 239.76712 
L 260.760904 239.76712 
L 260.903483 237.785945 
L 261.046062 239.271353 
L 261.33122 231.346654 
L 261.473799 239.76712 
L 261.616378 238.281712 
L 261.758957 221.438887 
L 261.901536 226.392771 
L 262.186694 216.980771 
L 262.329273 218.466179 
L 262.471852 216.980771 
L 262.75701 191.223606 
L 262.899589 191.223606 
L 263.042168 171.903841 
L 263.184747 196.175597 
L 263.327326 189.736306 
L 263.469905 195.681723 
L 263.612484 184.288549 
L 263.755062 188.746665 
L 263.897641 185.27819 
L 264.04022 195.185956 
L 264.182799 196.175597 
L 264.325378 203.606422 
L 264.467957 196.175597 
L 264.610536 224.411596 
L 264.753115 208.064538 
L 264.895694 219.953479 
L 265.323431 225.401237 
L 265.46601 214.008063 
L 265.608589 235.80477 
L 265.751168 221.934654 
L 265.893747 251.656061 
L 266.178905 236.300537 
L 266.321484 225.401237 
L 266.464063 229.859353 
L 266.606642 230.35512 
L 266.749221 236.794411 
L 266.8918 225.897004 
L 267.034379 232.832062 
L 267.176958 228.869712 
L 267.319537 234.813236 
L 267.462116 229.365479 
L 267.604695 237.785945 
L 267.747274 237.785945 
L 267.889853 231.346654 
L 268.032432 241.748294 
L 268.175011 227.382412 
L 268.31759 236.300537 
L 268.460169 226.888537 
L 268.602748 227.382412 
L 268.745326 245.216769 
L 269.030484 240.262886 
L 269.173063 249.179119 
L 269.315642 240.262886 
L 269.458221 244.225236 
L 269.6008 235.309003 
L 269.743379 241.252528 
L 269.885958 229.859353 
L 270.028537 238.775586 
L 270.171116 239.76712 
L 270.313695 234.813236 
L 270.598853 247.197944 
L 270.741432 248.683352 
L 270.884011 229.365479 
L 271.169169 244.225236 
L 271.311748 235.309003 
L 271.454327 247.691819 
L 271.596906 241.748294 
L 271.882064 246.206411 
L 272.024643 231.840528 
L 272.167222 246.702177 
L 272.309801 247.691819 
L 272.45238 242.739828 
L 272.594959 243.729469 
L 272.737538 246.206411 
L 272.880117 237.785945 
L 273.022696 242.244061 
L 273.165275 237.290178 
L 273.307854 245.216769 
L 273.450433 237.290178 
L 273.593012 251.656061 
L 273.73559 241.748294 
L 273.878169 246.702177 
L 274.020748 259.084993 
L 274.305906 233.823595 
L 274.448485 235.309003 
L 274.591064 233.823595 
L 274.733643 246.702177 
L 274.876222 240.758653 
L 275.018801 254.626877 
L 275.16138 243.729469 
L 275.303959 245.216769 
L 275.446538 241.748294 
L 275.589117 252.645702 
L 275.731696 242.244061 
L 275.874275 243.729469 
L 276.016854 248.683352 
L 276.159433 245.216769 
L 276.302012 232.336295 
L 276.444591 240.758653 
L 276.58717 236.794411 
L 276.729749 248.683352 
L 276.872328 249.674886 
L 277.014907 236.300537 
L 277.157486 250.664527 
L 277.300065 240.758653 
L 277.442644 252.645702 
L 277.585223 250.664527 
L 277.870381 237.290178 
L 278.01296 255.122643 
L 278.298118 247.197944 
L 278.440697 237.785945 
L 278.725854 246.206411 
L 278.868433 245.710644 
L 279.29617 240.262886 
L 279.438749 234.813236 
L 279.581328 256.114177 
L 279.723907 253.141469 
L 279.866486 242.739828 
L 280.151644 246.206411 
L 280.294223 228.373945 
L 280.436802 240.758653 
L 280.579381 240.758653 
L 280.864539 249.179119 
L 281.007118 237.785945 
L 281.149697 250.16876 
L 281.292276 249.179119 
L 281.434855 234.813236 
L 281.720013 251.160294 
L 281.862592 249.674886 
L 282.005171 242.244061 
L 282.14775 242.244061 
L 282.290329 245.710644 
L 282.432908 236.300537 
L 282.575487 257.103818 
L 282.860645 236.794411 
L 283.003224 241.748294 
L 283.145803 240.758653 
L 283.288382 247.691819 
L 283.430961 244.721003 
L 283.573539 237.785945 
L 283.716118 245.710644 
L 283.858697 239.271353 
L 284.001276 246.702177 
L 284.143855 243.729469 
L 284.286434 247.691819 
L 284.429013 235.80477 
L 284.571592 256.608051 
L 284.714171 245.216769 
L 284.85675 254.626877 
L 284.999329 235.309003 
L 285.284487 251.656061 
L 285.427066 224.907362 
L 285.569645 232.832062 
L 285.712224 227.878179 
L 285.854803 239.76712 
L 285.997382 241.748294 
L 286.139961 234.31747 
L 286.28254 251.160294 
L 286.425119 242.739828 
L 286.567698 245.216769 
L 286.710277 242.244061 
L 286.995435 226.888537 
L 287.138014 233.327828 
L 287.280593 219.457713 
L 287.423172 230.850887 
L 287.565751 226.392771 
L 287.70833 238.281712 
L 287.993488 216.485004 
L 288.136067 240.262886 
L 288.706382 223.420062 
L 288.848961 222.924295 
L 289.134119 234.813236 
L 289.276698 217.476538 
L 289.561856 236.300537 
L 289.704435 214.999596 
L 289.847014 216.980771 
L 289.989593 225.897004 
L 290.132172 219.953479 
L 290.274751 220.449246 
L 290.41733 217.476538 
L 290.559909 202.121014 
L 290.845067 218.466179 
L 290.987646 213.514188 
L 291.130225 196.671364 
L 291.272804 220.449246 
L 291.415383 214.50383 
L 291.557962 220.449246 
L 291.700541 214.008063 
L 291.84312 213.018421 
L 291.985699 213.514188 
L 292.128278 227.382412 
L 292.270857 219.953479 
L 292.556015 228.373945 
L 292.698594 220.449246 
L 292.841173 233.327828 
L 292.983752 234.31747 
L 293.126331 247.691819 
L 293.26891 242.739828 
L 293.411488 245.216769 
L 293.554067 253.141469 
L 293.696646 249.674886 
L 293.839225 243.233702 
L 293.981804 247.691819 
L 294.266962 232.832062 
L 294.409541 231.840528 
L 294.694699 249.179119 
L 294.837278 244.721003 
L 294.979857 245.710644 
L 295.265015 239.271353 
L 295.407594 246.702177 
L 295.550173 248.187586 
L 295.692752 243.233702 
L 295.835331 256.114177 
L 295.97791 244.225236 
L 296.120489 246.206411 
L 296.405647 237.785945 
L 296.690805 245.216769 
L 296.833384 233.823595 
L 296.975963 243.729469 
L 297.118542 237.290178 
L 297.261121 245.216769 
L 297.4037 237.290178 
L 297.546279 251.160294 
L 297.688858 245.216769 
L 297.831437 249.179119 
L 298.116595 237.785945 
L 298.259173 228.373945 
L 298.401752 244.721003 
L 298.544331 243.729469 
L 298.68691 239.76712 
L 298.829489 240.262886 
L 299.114647 244.721003 
L 299.257226 237.290178 
L 299.399805 247.691819 
L 299.542384 243.729469 
L 299.684963 246.702177 
L 299.827542 236.794411 
L 299.970121 251.160294 
L 300.1127 239.271353 
L 300.397858 251.160294 
L 300.540437 251.656061 
L 300.683016 241.252528 
L 300.825595 247.691819 
L 300.968174 244.225236 
L 301.253332 252.149935 
L 301.395911 249.674886 
L 301.681069 253.141469 
L 301.823648 230.35512 
L 302.251385 259.084993 
L 302.393964 242.739828 
L 302.536543 243.729469 
L 302.679122 246.206411 
L 302.821701 233.823595 
L 302.96428 249.179119 
L 303.106859 236.794411 
L 303.534595 255.122643 
L 303.962332 241.252528 
L 304.104911 245.710644 
L 304.24749 243.729469 
L 304.390069 256.114177 
L 304.532648 244.225236 
L 304.675227 247.691819 
L 304.817806 237.785945 
L 305.102964 241.748294 
L 305.245543 234.31747 
L 305.388122 234.813236 
L 305.530701 237.785945 
L 305.67328 255.122643 
L 306.101017 236.300537 
L 306.243596 250.664527 
L 306.386175 232.832062 
L 306.671333 244.225236 
L 306.813912 243.729469 
L 306.956491 242.244061 
L 307.09907 236.300537 
L 307.384228 252.149935 
L 307.526807 248.187586 
L 307.669386 237.785945 
L 307.954544 243.233702 
L 308.097123 237.290178 
L 308.239701 241.252528 
L 308.38228 250.16876 
L 308.524859 240.262886 
L 308.810017 247.691819 
L 308.952596 246.206411 
L 309.095175 239.76712 
L 309.665491 247.691819 
L 309.80807 245.216769 
L 309.950649 236.794411 
L 310.235807 243.233702 
L 310.378386 237.290178 
L 310.520965 243.729469 
L 310.663544 232.832062 
L 310.948702 248.187586 
L 311.091281 237.290178 
L 311.23386 243.729469 
L 311.376439 238.775586 
L 311.519018 247.197944 
L 311.661597 234.813236 
L 311.804176 239.76712 
L 311.946755 240.262886 
L 312.089334 243.233702 
L 312.231913 231.346654 
L 312.65965 251.160294 
L 312.802229 244.721003 
L 312.944808 250.16876 
L 313.087386 237.785945 
L 313.229965 247.691819 
L 313.372544 244.225236 
L 313.515123 248.683352 
L 313.657702 246.702177 
L 313.800281 241.252528 
L 313.94286 246.702177 
L 314.228018 241.748294 
L 314.370597 244.225236 
L 314.513176 240.262886 
L 314.655755 244.225236 
L 314.798334 242.739828 
L 314.940913 239.271353 
L 315.083492 238.775586 
L 315.226071 239.76712 
L 315.36865 245.216769 
L 315.511229 239.271353 
L 315.796387 253.141469 
L 315.938966 239.76712 
L 316.081545 238.775586 
L 316.224124 238.775586 
L 316.366703 254.626877 
L 316.509282 238.281712 
L 316.651861 242.244061 
L 316.937019 240.262886 
L 317.079598 236.300537 
L 317.222177 249.179119 
L 317.364756 236.794411 
L 317.507335 250.16876 
L 317.649914 252.645702 
L 317.935072 244.721003 
L 318.077651 242.244061 
L 318.220229 248.187586 
L 318.362808 244.225236 
L 318.505387 228.869712 
L 318.647966 243.729469 
L 318.790545 233.823595 
L 318.933124 235.80477 
L 319.075703 246.702177 
L 319.218282 243.729469 
L 319.360861 245.216769 
L 319.50344 238.281712 
L 319.646019 249.179119 
L 319.788598 251.160294 
L 319.931177 250.664527 
L 320.216335 237.785945 
L 320.358914 244.721003 
L 320.501493 238.775586 
L 320.786651 249.179119 
L 321.071809 231.346654 
L 321.356967 245.710644 
L 321.499546 242.739828 
L 321.642125 247.691819 
L 321.784704 245.216769 
L 321.927283 240.262886 
L 322.069862 242.244061 
L 322.212441 248.683352 
L 322.35502 245.710644 
L 322.497599 234.813236 
L 322.640178 246.206411 
L 322.782757 240.758653 
L 322.925336 247.691819 
L 323.067914 233.823595 
L 323.210493 242.244061 
L 323.353072 228.869712 
L 323.495651 240.262886 
L 323.63823 240.262886 
L 323.780809 239.271353 
L 324.065967 246.206411 
L 324.208546 237.785945 
L 324.493704 241.252528 
L 324.636283 237.290178 
L 324.921441 240.758653 
L 325.06402 240.758653 
L 325.206599 245.216769 
L 325.491757 225.897004 
L 325.634336 224.907362 
L 325.919494 200.633714 
L 326.062073 202.614888 
L 326.204652 208.064538 
L 326.347231 197.167131 
L 326.48981 205.09183 
L 326.632389 198.652539 
L 326.774968 214.50383 
L 326.917547 211.531121 
L 327.060126 211.037247 
L 327.202705 205.587597 
L 327.345284 220.943121 
L 327.487863 221.934654 
L 327.630442 215.99113 
L 327.773021 230.850887 
L 327.915599 224.411596 
L 328.058178 236.300537 
L 328.200757 235.309003 
L 328.343336 241.252528 
L 328.485915 233.823595 
L 328.628494 234.813236 
L 328.913652 245.710644 
L 329.056231 232.336295 
L 329.19881 234.813236 
L 329.341389 231.840528 
L 329.483968 233.327828 
L 329.626547 237.785945 
L 329.769126 235.80477 
L 329.911705 244.225236 
L 330.054284 230.35512 
L 330.196863 233.327828 
L 330.339442 233.823595 
L 330.482021 233.823595 
L 330.6246 231.840528 
L 330.767179 238.775586 
L 330.909758 208.560305 
L 331.052337 224.907362 
L 331.194916 226.392771 
L 331.337495 231.346654 
L 331.622653 221.934654 
L 331.765232 235.80477 
L 331.907811 237.785945 
L 332.05039 231.840528 
L 332.192969 236.300537 
L 332.478127 233.823595 
L 332.620706 227.878179 
L 333.191021 245.216769 
L 333.3336 233.327828 
L 333.476179 235.309003 
L 333.618758 239.76712 
L 333.761337 235.309003 
L 333.903916 248.187586 
L 334.046495 247.691819 
L 334.189074 241.748294 
L 334.331653 243.233702 
L 334.474232 238.775586 
L 334.616811 240.758653 
L 334.75939 239.271353 
L 335.044548 253.637235 
L 335.329706 238.775586 
L 335.614864 237.785945 
L 335.757443 241.252528 
L 335.900022 240.262886 
L 336.042601 243.729469 
L 336.18518 241.748294 
L 336.327759 242.244061 
L 336.470338 247.691819 
L 336.612917 236.794411 
L 336.755496 241.748294 
L 336.898075 235.309003 
L 337.040654 235.80477 
L 337.325812 250.16876 
L 337.468391 242.739828 
L 337.61097 247.197944 
L 337.753549 238.281712 
L 338.038706 248.683352 
L 338.181285 240.758653 
L 338.466443 248.683352 
L 338.609022 248.187586 
L 338.751601 250.16876 
L 338.89418 243.233702 
L 339.036759 248.187586 
L 339.321917 242.244061 
L 339.464496 236.300537 
L 339.892233 260.076527 
L 340.034812 245.710644 
L 340.177391 246.206411 
L 340.31997 250.664527 
L 340.462549 246.702177 
L 340.605128 253.141469 
L 340.747707 248.683352 
L 340.890286 239.76712 
L 341.032865 250.664527 
L 341.175444 248.187586 
L 341.318023 241.252528 
L 341.460602 242.244061 
L 341.603181 241.252528 
L 341.74576 239.271353 
L 341.888339 242.244061 
L 342.030918 251.656061 
L 342.173497 241.252528 
L 342.316076 250.664527 
L 342.458655 249.674886 
L 342.601234 252.645702 
L 342.886391 236.300537 
L 343.02897 250.664527 
L 343.171549 236.794411 
L 343.314128 247.197944 
L 343.456707 244.225236 
L 343.599286 245.710644 
L 343.741865 252.149935 
L 343.884444 240.262886 
L 344.027023 244.721003 
L 344.169602 227.382412 
L 344.312181 244.225236 
L 344.45476 238.281712 
L 344.597339 251.656061 
L 344.739918 247.691819 
L 344.882497 247.197944 
L 345.025076 249.674886 
L 345.167655 241.748294 
L 345.310234 246.702177 
L 345.452813 243.729469 
L 345.595392 244.225236 
L 345.737971 248.683352 
L 345.88055 242.244061 
L 346.023129 251.160294 
L 346.165708 242.244061 
L 346.308287 243.729469 
L 346.450866 252.149935 
L 346.593445 239.76712 
L 346.736024 239.76712 
L 346.878603 238.775586 
L 347.021182 248.187586 
L 347.163761 249.674886 
L 347.30634 255.61841 
L 347.591498 232.832062 
L 347.734077 254.133002 
L 347.876655 236.794411 
L 348.161813 248.187586 
L 348.304392 236.794411 
L 348.446971 252.149935 
L 348.58955 234.813236 
L 348.732129 252.149935 
L 348.874708 243.729469 
L 349.017287 242.739828 
L 349.302445 232.832062 
L 349.587603 245.216769 
L 349.730182 247.691819 
L 349.872761 241.252528 
L 350.01534 248.683352 
L 350.157919 245.710644 
L 350.443077 237.785945 
L 350.728235 253.637235 
L 351.013393 230.35512 
L 351.298551 248.187586 
L 351.44113 237.290178 
L 351.583709 252.149935 
L 351.726288 246.702177 
L 351.868867 233.327828 
L 352.011446 245.710644 
L 352.296604 238.281712 
L 352.439183 235.80477 
L 352.581762 235.80477 
L 352.72434 239.76712 
L 352.866919 238.775586 
L 353.009498 242.739828 
L 353.152077 235.309003 
L 353.437235 248.187586 
L 353.579814 246.206411 
L 353.864972 233.327828 
L 354.007551 244.225236 
L 354.292709 239.271353 
L 354.435288 248.683352 
L 354.720446 240.262886 
L 354.863025 229.859353 
L 355.005604 237.785945 
L 355.148183 227.382412 
L 355.290762 238.775586 
L 355.433341 234.31747 
L 355.57592 246.206411 
L 355.718499 234.31747 
L 355.861078 242.244061 
L 356.003657 236.794411 
L 356.146236 237.290178 
L 356.288815 238.775586 
L 356.431394 241.748294 
L 356.573973 247.691819 
L 356.716552 232.832062 
L 356.859131 247.197944 
L 357.00171 244.721003 
L 357.144289 238.281712 
L 357.286868 242.739828 
L 357.429447 252.645702 
L 357.572025 253.637235 
L 357.714604 234.813236 
L 357.857183 258.095352 
L 357.999762 250.664527 
L 358.142341 236.794411 
L 358.28492 251.160294 
L 358.427499 237.290178 
L 358.712657 247.691819 
L 358.997815 235.80477 
L 359.140394 247.691819 
L 359.282973 250.16876 
L 359.568131 244.721003 
L 359.71071 246.702177 
L 359.853289 245.710644 
L 360.138447 237.290178 
L 360.281026 246.206411 
L 360.423605 242.739828 
L 360.566184 243.233702 
L 360.708763 244.225236 
L 360.851342 244.225236 
L 360.993921 255.122643 
L 361.1365 243.233702 
L 361.279079 241.748294 
L 361.421658 248.187586 
L 361.564237 230.35512 
L 361.706816 235.80477 
L 361.849395 254.626877 
L 362.134553 235.80477 
L 362.277132 239.76712 
L 362.419711 235.309003 
L 362.704868 246.206411 
L 362.990026 244.225236 
L 363.132605 252.149935 
L 363.275184 231.840528 
L 363.417763 242.244061 
L 363.560342 235.309003 
L 363.702921 238.281712 
L 363.8455 237.785945 
L 363.988079 237.785945 
L 364.130658 240.262886 
L 364.415816 248.683352 
L 364.558395 252.149935 
L 364.843553 237.290178 
L 364.986132 250.16876 
L 365.27129 237.785945 
L 365.413869 240.262886 
L 365.556448 238.775586 
L 365.699027 240.262886 
L 365.841606 238.775586 
L 365.984185 232.336295 
L 366.126764 252.645702 
L 366.411922 238.775586 
L 366.554501 231.346654 
L 366.69708 247.691819 
L 366.839659 231.840528 
L 366.982238 242.244061 
L 367.124817 244.225236 
L 367.267396 238.281712 
L 367.409975 241.252528 
L 367.552553 250.16876 
L 367.98029 242.244061 
L 368.122869 225.897004 
L 368.265448 244.225236 
L 368.408027 231.346654 
L 368.835764 250.664527 
L 368.978343 238.775586 
L 369.40608 251.656061 
L 369.548659 242.244061 
L 369.691238 242.739828 
L 369.833817 243.729469 
L 369.976396 243.729469 
L 370.118975 244.225236 
L 370.261554 240.758653 
L 370.404133 246.702177 
L 370.546712 241.252528 
L 370.689291 241.748294 
L 370.83187 248.187586 
L 370.974449 235.80477 
L 371.259607 246.206411 
L 371.402186 239.76712 
L 371.544765 241.748294 
L 371.687344 250.16876 
L 371.829923 240.758653 
L 371.972502 244.225236 
L 372.115081 235.80477 
L 372.25766 249.179119 
L 372.542817 232.832062 
L 372.685396 238.281712 
L 372.827975 231.840528 
L 372.970554 248.683352 
L 373.113133 235.80477 
L 373.255712 249.674886 
L 373.54087 243.729469 
L 373.826028 250.16876 
L 373.968607 236.794411 
L 374.111186 239.271353 
L 374.253765 251.160294 
L 374.396344 240.758653 
L 374.538923 245.710644 
L 374.681502 245.710644 
L 374.824081 249.179119 
L 374.96666 242.739828 
L 375.109239 251.160294 
L 375.251818 238.281712 
L 375.394397 246.206411 
L 375.536976 243.233702 
L 375.679555 230.35512 
L 375.822134 233.823595 
L 376.107292 247.691819 
L 376.39245 236.300537 
L 376.535029 236.300537 
L 376.677608 242.244061 
L 376.820187 238.281712 
L 376.962766 250.664527 
L 377.105345 240.262886 
L 377.247924 244.225236 
L 377.390503 241.252528 
L 377.533081 251.160294 
L 377.67566 252.645702 
L 377.818239 231.840528 
L 377.960818 253.141469 
L 378.103397 233.327828 
L 378.388555 241.252528 
L 378.531134 241.252528 
L 378.673713 235.309003 
L 378.816292 247.691819 
L 378.816292 247.691819 
" clip-path="url(#p61a5cb7327)" style="fill: none; stroke: #000000; stroke-width: 0.7; stroke-linecap: square"/>
   </g>
   <g id="patch_3">
    <path d="M 26.9125 285.22 
L 26.9125 7.2 
" style="fill: none; stroke: #000000; stroke-linejoin: miter; stroke-linecap: square"/>
   </g>
   <g id="patch_4">
    <path d="M 378.8875 285.22 
L 378.8875 7.2 
" style="fill: none; stroke: #000000; stroke-linejoin: miter; stroke-linecap: square"/>
   </g>
   <g id="patch_5">
    <path d="M 26.9125 285.22 
L 378.8875 285.22 
" style="fill: none; stroke: #000000; stroke-linejoin: miter; stroke-linecap: square"/>
   </g>
   <g id="patch_6">
    <path d="M 26.9125 7.2 
L 378.8875 7.2 
" style="fill: none; stroke: #000000; stroke-linejoin: miter; stroke-linecap: square"/>
   </g>
   <g id="text_9">
    <!-- sample -->
    <g transform="translate(312.6876 42.970639) scale(0.16 -0.16)">
     <defs>
      <path id="DejaVuSerif-6d" d="M 3316 2675 
Q 3481 3041 3739 3227 
Q 3997 3413 4341 3413 
Q 4863 3413 5119 3089 
Q 5375 2766 5375 2113 
L 5375 331 
L 5894 331 
L 5894 0 
L 4300 0 
L 4300 331 
L 4800 331 
L 4800 2047 
Q 4800 2556 4650 2772 
Q 4500 2988 4153 2988 
Q 3769 2988 3567 2697 
Q 3366 2406 3366 1850 
L 3366 331 
L 3866 331 
L 3866 0 
L 2291 0 
L 2291 331 
L 2791 331 
L 2791 2069 
Q 2791 2566 2641 2777 
Q 2491 2988 2144 2988 
Q 1759 2988 1557 2697 
Q 1356 2406 1356 1850 
L 1356 331 
L 1856 331 
L 1856 0 
L 263 0 
L 263 331 
L 781 331 
L 781 2994 
L 231 2994 
L 231 3322 
L 1356 3322 
L 1356 2731 
Q 1516 3063 1762 3238 
Q 2009 3413 2322 3413 
Q 2709 3413 2968 3220 
Q 3228 3028 3316 2675 
z
" transform="scale(0.015625)"/>
      <path id="DejaVuSerif-70" d="M 1313 1825 
L 1313 1497 
Q 1313 897 1542 583 
Q 1772 269 2209 269 
Q 2650 269 2876 622 
Q 3103 975 3103 1663 
Q 3103 2353 2876 2703 
Q 2650 3053 2209 3053 
Q 1772 3053 1542 2737 
Q 1313 2422 1313 1825 
z
M 738 2988 
L 184 2988 
L 184 3322 
L 1313 3322 
L 1313 2803 
Q 1481 3116 1742 3264 
Q 2003 3413 2388 3413 
Q 3000 3413 3387 2928 
Q 3775 2444 3775 1663 
Q 3775 881 3387 395 
Q 3000 -91 2388 -91 
Q 2003 -91 1742 57 
Q 1481 206 1313 519 
L 1313 -997 
L 1856 -997 
L 1856 -1331 
L 184 -1331 
L 184 -997 
L 738 -997 
L 738 2988 
z
" transform="scale(0.015625)"/>
      <path id="DejaVuSerif-6c" d="M 1313 331 
L 1856 331 
L 1856 0 
L 184 0 
L 184 331 
L 738 331 
L 738 4531 
L 184 4531 
L 184 4863 
L 1313 4863 
L 1313 331 
z
" transform="scale(0.015625)"/>
     </defs>
     <use xlink:href="#DejaVuSerif-73"/>
     <use xlink:href="#DejaVuSerif-61" transform="translate(51.318359 0)"/>
     <use xlink:href="#DejaVuSerif-6d" transform="translate(110.9375 0)"/>
     <use xlink:href="#DejaVuSerif-70" transform="translate(205.761719 0)"/>
     <use xlink:href="#DejaVuSerif-6c" transform="translate(269.775391 0)"/>
     <use xlink:href="#DejaVuSerif-65" transform="translate(301.757812 0)"/>
    </g>
   </g>
   <g id="PathCollection_1">
    <defs>
     <path id="mc796667bf4" d="M -0 3.082207 
L 3.082207 -3.082207 
L -3.082207 -3.082207 
z
" style="stroke: #ff0000"/>
    </defs>
    <g clip-path="url(#p61a5cb7327)">
     <use xlink:href="#mc796667bf4" x="36.359509" y="228.055121" style="fill: #ff0000; stroke: #ff0000"/>
    </g>
   </g>
   <g id="PathCollection_2">
    <g clip-path="url(#p61a5cb7327)">
     <use xlink:href="#mc796667bf4" x="61.455326" y="217.063331" style="fill: #ff0000; stroke: #ff0000"/>
    </g>
   </g>
   <g id="PathCollection_3">
    <g clip-path="url(#p61a5cb7327)">
     <use xlink:href="#mc796667bf4" x="65.700145" y="212.063747" style="fill: #ff0000; stroke: #ff0000"/>
    </g>
   </g>
   <g id="PathCollection_4">
    <g clip-path="url(#p61a5cb7327)">
     <use xlink:href="#mc796667bf4" x="98.490136" y="133.997386" style="fill: #ff0000; stroke: #ff0000"/>
    </g>
   </g>
   <g id="PathCollection_5">
    <g clip-path="url(#p61a5cb7327)">
     <use xlink:href="#mc796667bf4" x="100.566789" y="143.211083" style="fill: #ff0000; stroke: #ff0000"/>
    </g>
   </g>
   <g id="PathCollection_6">
    <g clip-path="url(#p61a5cb7327)">
     <use xlink:href="#mc796667bf4" x="102.917982" y="203.502578" style="fill: #ff0000; stroke: #ff0000"/>
    </g>
   </g>
   <g id="PathCollection_7">
    <g clip-path="url(#p61a5cb7327)">
     <use xlink:href="#mc796667bf4" x="106.261744" y="217.251831" style="fill: #ff0000; stroke: #ff0000"/>
    </g>
   </g>
   <g id="PathCollection_8">
    <g clip-path="url(#p61a5cb7327)">
     <use xlink:href="#mc796667bf4" x="116.349347" y="222.653075" style="fill: #ff0000; stroke: #ff0000"/>
    </g>
   </g>
   <g id="PathCollection_9">
    <g clip-path="url(#p61a5cb7327)">
     <use xlink:href="#mc796667bf4" x="132.272696" y="213.876703" style="fill: #ff0000; stroke: #ff0000"/>
    </g>
   </g>
   <g id="PathCollection_10">
    <g clip-path="url(#p61a5cb7327)">
     <use xlink:href="#mc796667bf4" x="137.122912" y="169.118087" style="fill: #ff0000; stroke: #ff0000"/>
    </g>
   </g>
   <g id="PathCollection_11">
    <g clip-path="url(#p61a5cb7327)">
     <use xlink:href="#mc796667bf4" x="139.093972" y="209.719841" style="fill: #ff0000; stroke: #ff0000"/>
    </g>
   </g>
   <g id="PathCollection_12">
    <g clip-path="url(#p61a5cb7327)">
     <use xlink:href="#mc796667bf4" x="148.111572" y="214.514278" style="fill: #ff0000; stroke: #ff0000"/>
    </g>
   </g>
   <g id="PathCollection_13">
    <g clip-path="url(#p61a5cb7327)">
     <use xlink:href="#mc796667bf4" x="151.877704" y="219.295802" style="fill: #ff0000; stroke: #ff0000"/>
    </g>
   </g>
   <g id="PathCollection_14">
    <g clip-path="url(#p61a5cb7327)">
     <use xlink:href="#mc796667bf4" x="164.253145" y="210.467304" style="fill: #ff0000; stroke: #ff0000"/>
    </g>
   </g>
   <g id="PathCollection_15">
    <g clip-path="url(#p61a5cb7327)">
     <use xlink:href="#mc796667bf4" x="166.949274" y="201.779232" style="fill: #ff0000; stroke: #ff0000"/>
    </g>
   </g>
   <g id="PathCollection_16">
    <g clip-path="url(#p61a5cb7327)">
     <use xlink:href="#mc796667bf4" x="180.415837" y="220.207822" style="fill: #ff0000; stroke: #ff0000"/>
    </g>
   </g>
   <g id="PathCollection_17">
    <g clip-path="url(#p61a5cb7327)">
     <use xlink:href="#mc796667bf4" x="191.531207" y="205.522218" style="fill: #ff0000; stroke: #ff0000"/>
    </g>
   </g>
   <g id="PathCollection_18">
    <g clip-path="url(#p61a5cb7327)">
     <use xlink:href="#mc796667bf4" x="196.226554" y="221.401751" style="fill: #ff0000; stroke: #ff0000"/>
    </g>
   </g>
   <g id="PathCollection_19">
    <g clip-path="url(#p61a5cb7327)">
     <use xlink:href="#mc796667bf4" x="198.465115" y="220.210145" style="fill: #ff0000; stroke: #ff0000"/>
    </g>
   </g>
   <g id="PathCollection_20">
    <g clip-path="url(#p61a5cb7327)">
     <use xlink:href="#mc796667bf4" x="216.035707" y="215.112204" style="fill: #ff0000; stroke: #ff0000"/>
    </g>
   </g>
   <g id="PathCollection_21">
    <g clip-path="url(#p61a5cb7327)">
     <use xlink:href="#mc796667bf4" x="219.133087" y="206.428178" style="fill: #ff0000; stroke: #ff0000"/>
    </g>
   </g>
   <g id="PathCollection_22">
    <g clip-path="url(#p61a5cb7327)">
     <use xlink:href="#mc796667bf4" x="221.357569" y="203.241518" style="fill: #ff0000; stroke: #ff0000"/>
    </g>
   </g>
   <g id="PathCollection_23">
    <g clip-path="url(#p61a5cb7327)">
     <use xlink:href="#mc796667bf4" x="223.610209" y="215.766932" style="fill: #ff0000; stroke: #ff0000"/>
    </g>
   </g>
   <g id="PathCollection_24">
    <g clip-path="url(#p61a5cb7327)">
     <use xlink:href="#mc796667bf4" x="228.608254" y="219.155914" style="fill: #ff0000; stroke: #ff0000"/>
    </g>
   </g>
   <g id="PathCollection_25">
    <g clip-path="url(#p61a5cb7327)">
     <use xlink:href="#mc796667bf4" x="231.557805" y="218.836367" style="fill: #ff0000; stroke: #ff0000"/>
    </g>
   </g>
   <g id="PathCollection_26">
    <g clip-path="url(#p61a5cb7327)">
     <use xlink:href="#mc796667bf4" x="243.905088" y="218.104424" style="fill: #ff0000; stroke: #ff0000"/>
    </g>
   </g>
   <g id="PathCollection_27">
    <g clip-path="url(#p61a5cb7327)">
     <use xlink:href="#mc796667bf4" x="245.84095" y="214.782602" style="fill: #ff0000; stroke: #ff0000"/>
    </g>
   </g>
   <g id="PathCollection_28">
    <g clip-path="url(#p61a5cb7327)">
     <use xlink:href="#mc796667bf4" x="254.928945" y="218.327008" style="fill: #ff0000; stroke: #ff0000"/>
    </g>
   </g>
   <g id="PathCollection_29">
    <g clip-path="url(#p61a5cb7327)">
     <use xlink:href="#mc796667bf4" x="263.30595" y="165.617202" style="fill: #ff0000; stroke: #ff0000"/>
    </g>
   </g>
   <g id="PathCollection_30">
    <g clip-path="url(#p61a5cb7327)">
     <use xlink:href="#mc796667bf4" x="264.502664" y="177.964404" style="fill: #ff0000; stroke: #ff0000"/>
    </g>
   </g>
   <g id="PathCollection_31">
    <g clip-path="url(#p61a5cb7327)">
     <use xlink:href="#mc796667bf4" x="264.502664" y="177.964404" style="fill: #ff0000; stroke: #ff0000"/>
    </g>
   </g>
   <g id="PathCollection_32">
    <g clip-path="url(#p61a5cb7327)">
     <use xlink:href="#mc796667bf4" x="268.874194" y="218.339898" style="fill: #ff0000; stroke: #ff0000"/>
    </g>
   </g>
   <g id="PathCollection_33">
    <g clip-path="url(#p61a5cb7327)">
     <use xlink:href="#mc796667bf4" x="274.864809" y="216.149934" style="fill: #ff0000; stroke: #ff0000"/>
    </g>
   </g>
   <g id="PathCollection_34">
    <g clip-path="url(#p61a5cb7327)">
     <use xlink:href="#mc796667bf4" x="288.831177" y="197.901625" style="fill: #ff0000; stroke: #ff0000"/>
    </g>
   </g>
   <g id="PathCollection_35">
    <g clip-path="url(#p61a5cb7327)">
     <use xlink:href="#mc796667bf4" x="290.203879" y="195.118303" style="fill: #ff0000; stroke: #ff0000"/>
    </g>
   </g>
   <g id="PathCollection_36">
    <g clip-path="url(#p61a5cb7327)">
     <use xlink:href="#mc796667bf4" x="292.139742" y="201.700593" style="fill: #ff0000; stroke: #ff0000"/>
    </g>
   </g>
   <g id="PathCollection_37">
    <g clip-path="url(#p61a5cb7327)">
     <use xlink:href="#mc796667bf4" x="308.07013" y="213.330873" style="fill: #ff0000; stroke: #ff0000"/>
    </g>
   </g>
   <g id="PathCollection_38">
    <g clip-path="url(#p61a5cb7327)">
     <use xlink:href="#mc796667bf4" x="312.026329" y="216.836407" style="fill: #ff0000; stroke: #ff0000"/>
    </g>
   </g>
   <g id="PathCollection_39">
    <g clip-path="url(#p61a5cb7327)">
     <use xlink:href="#mc796667bf4" x="316.067002" y="213.79221" style="fill: #ff0000; stroke: #ff0000"/>
    </g>
   </g>
   <g id="PathCollection_40">
    <g clip-path="url(#p61a5cb7327)">
     <use xlink:href="#mc796667bf4" x="320.192149" y="213.373577" style="fill: #ff0000; stroke: #ff0000"/>
    </g>
   </g>
   <g id="PathCollection_41">
    <g clip-path="url(#p61a5cb7327)">
     <use xlink:href="#mc796667bf4" x="327.3654" y="195.998501" style="fill: #ff0000; stroke: #ff0000"/>
    </g>
   </g>
   <g id="PathCollection_42">
    <g clip-path="url(#p61a5cb7327)">
     <use xlink:href="#mc796667bf4" x="332.060746" y="207.079972" style="fill: #ff0000; stroke: #ff0000"/>
    </g>
   </g>
   <g id="PathCollection_43">
    <g clip-path="url(#p61a5cb7327)">
     <use xlink:href="#mc796667bf4" x="332.060746" y="207.079972" style="fill: #ff0000; stroke: #ff0000"/>
    </g>
   </g>
   <g id="PathCollection_44">
    <g clip-path="url(#p61a5cb7327)">
     <use xlink:href="#mc796667bf4" x="350.483118" y="215.066158" style="fill: #ff0000; stroke: #ff0000"/>
    </g>
   </g>
   <g id="PathCollection_45">
    <g clip-path="url(#p61a5cb7327)">
     <use xlink:href="#mc796667bf4" x="350.483118" y="215.066158" style="fill: #ff0000; stroke: #ff0000"/>
    </g>
   </g>
   <g id="PathCollection_46">
    <g clip-path="url(#p61a5cb7327)">
     <use xlink:href="#mc796667bf4" x="354.214053" y="215.553298" style="fill: #ff0000; stroke: #ff0000"/>
    </g>
   </g>
   <g id="PathCollection_47">
    <g clip-path="url(#p61a5cb7327)">
     <use xlink:href="#mc796667bf4" x="356.480771" y="218.722136" style="fill: #ff0000; stroke: #ff0000"/>
    </g>
   </g>
  </g>
 </g>
 <defs>
  <clipPath id="p61a5cb7327">
   <rect x="26.9125" y="7.2" width="351.975" height="278.02"/>
  </clipPath>
 </defs>
</svg>
